<svg width="247" height="247" viewBox="0 0 247 247" fill="none" xmlns="http://www.w3.org/2000/svg">
<path d="M123.5 0C104.132 0 85.8009 4.46499 69.4842 12.4172C70.6387 12.2876 71.8286 12.1815 73.101 12.1108C73.961 12.0637 74.8092 12.0284 75.6457 11.993C106.524 11.0506 135.246 28.9576 147.675 57.232C165.723 98.3241 135.21 129.968 135.21 129.968C136.459 50.7642 50.5286 29.4289 45.0151 28.1448C17.5301 50.7878 0 85.094 0 123.5C0 191.712 55.2881 247 123.5 247C141.878 247 159.326 242.983 174.995 235.773C173.781 235.902 172.521 236.02 171.178 236.103C170.318 236.15 169.469 236.185 168.633 236.22C137.755 237.163 109.033 219.256 96.604 190.981C78.5556 149.889 109.068 118.246 109.068 118.246C107.761 200.065 199.982 220.457 199.982 220.457C228.622 197.838 247 162.813 247 123.488C247 55.2881 191.7 0 123.5 0Z" fill="#00A9FF"/>
</svg>
