<svg xmlns="http://www.w3.org/2000/svg" xmlns:xlink="http://www.w3.org/1999/xlink" xmlns:lucid="lucid" width="1365.75" height="1292.89"><g transform="translate(470.69444444444446 6601)" lucid:page-tab-id="0_0"><path d="M-500-7000h1500v2000H-500z" fill="#f2f3f5"/><path d="M-399.75-6580.05v-.2A19.75 19.75 0 0 1-380-6600a19.75 19.75 0 0 1 19.75 19.75A19.75 19.75 0 0 1-380-6560.5a19.75 19.75 0 0 1-19.75-19.75v-.2" stroke="#2751ad" stroke-width="2" fill="#2751ad"/><path d="M-420-6594a6 6 0 0 1 6-6h68a6 6 0 0 1 6 6v146a6 6 0 0 1-6 6h-68a6 6 0 0 1-6-6z" fill="none"/><path d="M-380-6560.5v55.3l40 63.2m-40-63.2l-40 63.2m0-98.75h80" stroke="#2751ad" stroke-width="2" fill="none"/><use xlink:href="#a" transform="matrix(1,0,0,1,-503.35069444444446,-6442) translate(33.65625 21.52777777777778)"/><use xlink:href="#b" transform="matrix(1,0,0,1,-503.35069444444446,-6442) translate(141.20833333333331 21.52777777777778)"/><use xlink:href="#c" transform="matrix(1,0,0,1,-503.35069444444446,-6442) translate(89.62413194444446 48.415798611111114)"/><path d="M-6.7-6417v19.87m0 19.86v39.74m0 19.86v39.74m0 19.86v39.74m0 19.86v39.74m0 19.86v39.74m0 19.86v39.74m0 19.86v39.74m0 19.86v39.74m0 19.86v39.74m0 19.86v39.74m0 19.86v39.74m0 19.86v39.74m0 19.86v39.74m0 19.86v39.74m0 19.86v19.87" stroke="#2751ad" stroke-width="4" fill="none"/><path d="M-4.7-6416.95h-3.96v-2.05h3.95zM-4.7-5521h-3.96v-2.05h3.95z" stroke="#2751ad" stroke-width=".05" fill="#2751ad"/><path d="M388.56-6417v19.87m0 19.86v39.74m0 19.86v39.74m0 19.86v39.74m0 19.86v39.74m0 19.86v39.74m0 19.86v39.74m0 19.86v39.74m0 19.86v39.74m0 19.86v39.74m0 19.86v39.74m0 19.86v39.74m0 19.86v39.74m0 19.86v39.74m0 19.86v39.74m0 19.86v19.87" stroke="#2751ad" stroke-width="4" fill="none"/><path d="M390.53-6416.95h-3.95v-2.05h3.95zM390.53-5521h-3.95v-2.05h3.95z" stroke="#2751ad" stroke-width=".05" fill="#2751ad"/><path d="M757.22-6417v19.87m0 19.86v39.74m0 19.86v39.74m0 19.86v39.74m0 19.86v39.74m0 19.86v39.74m0 19.86v39.74m0 19.86v39.74m0 19.86v39.74m0 19.86v39.74m0 19.86v39.74m0 19.86v39.74m0 19.86v39.74m0 19.86v39.74m0 19.86v39.74m0 19.86v19.87" stroke="#2751ad" stroke-width="4" fill="none"/><path d="M759.2-6416.95h-3.96v-2.05h3.95zM759.2-5521h-3.96v-2.05h3.95z" stroke="#2751ad" stroke-width=".05" fill="#2751ad"/><path d="M-399.75-5500.05v-.2A19.75 19.75 0 0 1-380-5520a19.75 19.75 0 0 1 19.75 19.75A19.75 19.75 0 0 1-380-5480.5a19.75 19.75 0 0 1-19.75-19.75v-.2" stroke="#2751ad" stroke-width="2" fill="#2751ad"/><path d="M-420-5514a6 6 0 0 1 6-6h68a6 6 0 0 1 6 6v146a6 6 0 0 1-6 6h-68a6 6 0 0 1-6-6z" fill="none"/><path d="M-380-5480.5v55.3l40 63.2m-40-63.2l-40 63.2m0-98.75h80" stroke="#2751ad" stroke-width="2" fill="none"/><use xlink:href="#a" transform="matrix(1,0,0,1,-503.35069444444446,-5362) translate(33.65625 21.52777777777778)"/><use xlink:href="#b" transform="matrix(1,0,0,1,-503.35069444444446,-5362) translate(141.20833333333331 21.52777777777778)"/><use xlink:href="#c" transform="matrix(1,0,0,1,-503.35069444444446,-5362) translate(89.62413194444446 48.415798611111114)"/><path d="M-136.65-6514a6 6 0 0 1 6-6h247.92a6 6 0 0 1 6 6v88a6 6 0 0 1-6 6h-247.92a6 6 0 0 1-6-6z" stroke="#2751ad" stroke-width="2" fill="#2751ad"/><use xlink:href="#d" transform="matrix(1,0,0,1,-136.64930555555554,-6520) translate(16.00760416666666 59.02777777777778)"/><use xlink:href="#e" transform="matrix(1,0,0,1,-136.64930555555554,-6520) translate(84.96376736111111 59.02777777777778)"/><path d="M-136.65-5514a6 6 0 0 1 6-6h247.92a6 6 0 0 1 6 6v88a6 6 0 0 1-6 6h-247.92a6 6 0 0 1-6-6z" stroke="#2751ad" stroke-width="2" fill="#2751ad"/><use xlink:href="#d" transform="matrix(1,0,0,1,-136.64930555555554,-5520) translate(16.00760416666666 59.02777777777778)"/><use xlink:href="#e" transform="matrix(1,0,0,1,-136.64930555555554,-5520) translate(84.96376736111111 59.02777777777778)"/><path d="M260-6514a6 6 0 0 1 6-6h245.1a6 6 0 0 1 6 6v88a6 6 0 0 1-6 6H266a6 6 0 0 1-6-6z" stroke="#2751ad" stroke-width="2" fill="#2751ad"/><use xlink:href="#f" transform="matrix(1,0,0,1,260,-6520) translate(15.391935763888918 59.02777777777778)"/><use xlink:href="#g" transform="matrix(1,0,0,1,260,-6520) translate(169.22223090277777 59.02777777777778)"/><path d="M260-5514a6 6 0 0 1 6-6h245.1a6 6 0 0 1 6 6v88a6 6 0 0 1-6 6H266a6 6 0 0 1-6-6z" stroke="#2751ad" stroke-width="2" fill="#2751ad"/><use xlink:href="#f" transform="matrix(1,0,0,1,260,-5520) translate(15.391935763888918 59.02777777777778)"/><use xlink:href="#g" transform="matrix(1,0,0,1,260,-5520) translate(169.22223090277777 59.02777777777778)"/><path d="M620.38-6514a6 6 0 0 1 6-6h261.68a6 6 0 0 1 6 6v88a6 6 0 0 1-6 6H626.38a6 6 0 0 1-6-6z" stroke="#2751ad" stroke-width="2" fill="#2751ad"/><use xlink:href="#a" transform="matrix(1,0,0,1,620.3797743055557,-6520) translate(17.207907986111117 59.02777777777778)"/><use xlink:href="#h" transform="matrix(1,0,0,1,620.3797743055557,-6520) translate(124.75999131944445 59.02777777777778)"/><use xlink:href="#i" transform="matrix(1,0,0,1,620.3797743055557,-6520) translate(202.41841145833334 59.02777777777778)"/><path d="M620.38-5514a6 6 0 0 1 6-6h261.68a6 6 0 0 1 6 6v88a6 6 0 0 1-6 6H626.38a6 6 0 0 1-6-6z" stroke="#2751ad" stroke-width="2" fill="#2751ad"/><use xlink:href="#a" transform="matrix(1,0,0,1,620.3797743055557,-5520) translate(17.207907986111117 59.02777777777778)"/><use xlink:href="#h" transform="matrix(1,0,0,1,620.3797743055557,-5520) translate(124.75999131944445 59.02777777777778)"/><use xlink:href="#i" transform="matrix(1,0,0,1,620.3797743055557,-5520) translate(202.41841145833334 59.02777777777778)"/><path d="M-380-6501.33v20.38m0 20.38v40.77m0 20.38v40.76m0 20.4v40.75m0 20.37v40.76m0 20.4v40.75m0 20.38v40.77m0 20.38v40.77m0 20.38v40.77m0 20.38v40.76m0 20.38v40.77m0 20.4v40.75m0 20.4v40.75m0 20.38v40.76m0 20.4v40.75m0 20.37v40.77m0 20.38v20.38M-380-6501.28v-5.05" stroke="#2751ad" stroke-width="4" fill="none"/><path d="M-378.02-5520.76l-1.93-.24-1.2.03-.83.15v-2.23h3.96z" stroke="#2751ad" stroke-width=".05" fill="#2751ad"/><path d="M-378-6358.56l348.57-.54M-377.95-6358.56H-380" stroke="#2751ad" stroke-width="4" fill="none"/><path d="M-13.16-6359.12l-14.26 4.65v-9.27z" stroke="#2751ad" stroke-width="4" fill="#2751ad"/><use xlink:href="#j" transform="matrix(1,0,0,1,-287.6213904972716,-6384.345579734116) translate(0 17.21640914091409)"/><use xlink:href="#k" transform="matrix(1,0,0,1,-287.6213904972716,-6384.345579734116) translate(60.67395802080209 17.21640914091409)"/><path d="M-4.7-6259.36h370.52M-4.64-6259.36H-6.7" stroke="#2751ad" stroke-width="4" fill="none"/><path d="M382.08-6259.36l-14.26 4.64v-9.27z" stroke="#2751ad" stroke-width="4" fill="#2751ad"/><use xlink:href="#l" transform="matrix(1,0,0,1,70.59998333817755,-6327.865056302755) translate(0 17.21640914091409)"/><use xlink:href="#m" transform="matrix(1,0,0,1,70.59998333817755,-6327.865056302755) translate(74.44534980841836 17.21640914091409)"/><use xlink:href="#n" transform="matrix(1,0,0,1,70.59998333817755,-6327.865056302755) translate(95.74024296960948 17.21640914091409)"/><use xlink:href="#o" transform="matrix(1,0,0,1,70.59998333817755,-6327.865056302755) translate(0 38.71956531590659)"/><use xlink:href="#p" transform="matrix(1,0,0,1,70.59998333817755,-6327.865056302755) translate(79.44366213965148 38.71956531590659)"/><use xlink:href="#q" transform="matrix(1,0,0,1,70.59998333817755,-6327.865056302755) translate(184.11318182599513 38.71956531590659)"/><use xlink:href="#r" transform="matrix(1,0,0,1,70.59998333817755,-6327.865056302755) translate(0 60.22272149089909)"/><use xlink:href="#s" transform="matrix(1,0,0,1,70.59998333817755,-6327.865056302755) translate(51.380221029915496 60.22272149089909)"/><path d="M386.56-6199.5l-743.82.47M386.5-6199.5h2.06" stroke="#2751ad" stroke-width="4" fill="none"/><path d="M-373.53-6199.02l14.26-4.65v9.27z" stroke="#2751ad" stroke-width="4" fill="#2751ad"/><use xlink:href="#t" transform="matrix(1,0,0,1,-124.45302263375916,-6224.757018556349) translate(0 17.21640914091409)"/><use xlink:href="#u" transform="matrix(1,0,0,1,-124.45302263375916,-6224.757018556349) translate(111.3773242558631 17.21640914091409)"/><use xlink:href="#v" transform="matrix(1,0,0,1,-124.45302263375916,-6224.757018556349) translate(127.82142472059708 17.21640914091409)"/><use xlink:href="#w" transform="matrix(1,0,0,1,-124.45302263375916,-6224.757018556349) translate(188.56480374599963 17.21640914091409)"/><path d="M386.56-6119.67H16.06M386.5-6119.67h2.06" stroke="#2751ad" stroke-width="4" fill="none"/><path d="M-.22-6119.67l14.27-4.63v9.27z" stroke="#2751ad" stroke-width="4" fill="#2751ad"/><use xlink:href="#l" transform="matrix(1,0,0,1,61.0676116439769,-6166.672995683319) translate(0 17.21640914091409)"/><use xlink:href="#m" transform="matrix(1,0,0,1,61.0676116439769,-6166.672995683319) translate(74.44534980841836 17.21640914091409)"/><use xlink:href="#x" transform="matrix(1,0,0,1,61.0676116439769,-6166.672995683319) translate(95.74024296960948 17.21640914091409)"/><use xlink:href="#y" transform="matrix(1,0,0,1,61.0676116439769,-6166.672995683319) translate(0 38.71956531590659)"/><use xlink:href="#z" transform="matrix(1,0,0,1,61.0676116439769,-6166.672995683319) translate(40.168728786941195 38.71956531590659)"/><use xlink:href="#A" transform="matrix(1,0,0,1,61.0676116439769,-6166.672995683319) translate(154.973715144952 38.71956531590659)"/><use xlink:href="#u" transform="matrix(1,0,0,1,61.0676116439769,-6166.672995683319) translate(202.0238010129138 38.71956531590659)"/><use xlink:href="#B" transform="matrix(1,0,0,1,61.0676116439769,-6166.672995683319) translate(218.46790147764776 38.71956531590659)"/><path d="M-4.7-6079.76h118v39.92H16.06M-4.64-6079.76H-6.7" stroke="#2751ad" stroke-width="4" fill="none"/><path d="M-.22-6039.84l14.27-4.64v9.27z" stroke="#2751ad" stroke-width="4" fill="#2751ad"/><g><use xlink:href="#C" transform="matrix(1,0,0,1,121.31054687500001,-6070.551588087496) translate(0 17.21640914091409)"/><use xlink:href="#B" transform="matrix(1,0,0,1,121.31054687500001,-6070.551588087496) translate(71.80735163360087 17.21640914091409)"/></g><path d="M-4.7-5900.16h370.52M-4.64-5900.16H-6.7" stroke="#2751ad" stroke-width="4" fill="none"/><path d="M382.08-5900.16l-14.26 4.64v-9.27z" stroke="#2751ad" stroke-width="4" fill="#2751ad"/><g><use xlink:href="#D" transform="matrix(1,0,0,1,6.355182393239346,-6016.306583568365) translate(0 17.21640914091409)"/><use xlink:href="#A" transform="matrix(1,0,0,1,6.355182393239346,-6016.306583568365) translate(87.3836895408291 17.21640914091409)"/><use xlink:href="#E" transform="matrix(1,0,0,1,6.355182393239346,-6016.306583568365) translate(134.4337754087909 17.21640914091409)"/><use xlink:href="#F" transform="matrix(1,0,0,1,6.355182393239346,-6016.306583568365) translate(162.8356439159541 17.21640914091409)"/><use xlink:href="#G" transform="matrix(1,0,0,1,6.355182393239346,-6016.306583568365) translate(0 38.71956531590659)"/><use xlink:href="#H" transform="matrix(1,0,0,1,6.355182393239346,-6016.306583568365) translate(20.791590877837784 38.71956531590659)"/><use xlink:href="#o" transform="matrix(1,0,0,1,6.355182393239346,-6016.306583568365) translate(0 60.22272149089909)"/><use xlink:href="#I" transform="matrix(1,0,0,1,6.355182393239346,-6016.306583568365) translate(79.44366213965148 60.22272149089909)"/><use xlink:href="#J" transform="matrix(1,0,0,1,6.355182393239346,-6016.306583568365) translate(190.44784849578713 60.22272149089909)"/><use xlink:href="#K" transform="matrix(1,0,0,1,6.355182393239346,-6016.306583568365) translate(219.07533526790183 60.22272149089909)"/><use xlink:href="#L" transform="matrix(1,0,0,1,6.355182393239346,-6016.306583568365) translate(0 81.72587766589159)"/><use xlink:href="#M" transform="matrix(1,0,0,1,6.355182393239346,-6016.306583568365) translate(0 103.22903384088409)"/><use xlink:href="#N" transform="matrix(1,0,0,1,6.355182393239346,-6016.306583568365) translate(52.16988495724573 103.22903384088409)"/><use xlink:href="#O" transform="matrix(1,0,0,1,6.355182393239346,-6016.306583568365) translate(151.71960555430545 103.22903384088409)"/><use xlink:href="#P" transform="matrix(1,0,0,1,6.355182393239346,-6016.306583568365) translate(174.95828684430944 103.22903384088409)"/><use xlink:href="#E" transform="matrix(1,0,0,1,6.355182393239346,-6016.306583568365) translate(287.914938954833 103.22903384088409)"/><use xlink:href="#Q" transform="matrix(1,0,0,1,6.355182393239346,-6016.306583568365) translate(316.31680746199623 103.22903384088409)"/></g><path d="M386.56-5820.33H16.06M386.5-5820.33h2.06" stroke="#2751ad" stroke-width="4" fill="none"/><path d="M-.22-5820.33l14.27-4.64v9.27z" stroke="#2751ad" stroke-width="4" fill="#2751ad"/><g><use xlink:href="#R" transform="matrix(1,0,0,1,21.89680979816731,-5867.339629016652) translate(0 17.21640914091409)"/><use xlink:href="#S" transform="matrix(1,0,0,1,21.89680979816731,-5867.339629016652) translate(60.32685299779979 17.21640914091409)"/><use xlink:href="#O" transform="matrix(1,0,0,1,21.89680979816731,-5867.339629016652) translate(179.34916538528853 17.21640914091409)"/><use xlink:href="#T" transform="matrix(1,0,0,1,21.89680979816731,-5867.339629016652) translate(202.58784667529252 17.21640914091409)"/><use xlink:href="#U" transform="matrix(1,0,0,1,21.89680979816731,-5867.339629016652) translate(0 38.71956531590659)"/><use xlink:href="#V" transform="matrix(1,0,0,1,21.89680979816731,-5867.339629016652) translate(74.8011324569957 38.71956531590659)"/><use xlink:href="#W" transform="matrix(1,0,0,1,21.89680979816731,-5867.339629016652) translate(90.68118725935093 38.71956531590659)"/><use xlink:href="#X" transform="matrix(1,0,0,1,21.89680979816731,-5867.339629016652) translate(151.45059916147864 38.71956531590659)"/><use xlink:href="#Y" transform="matrix(1,0,0,1,21.89680979816731,-5867.339629016652) translate(253.57757455433043 38.71956531590659)"/></g><path d="M-4.7-5740.5H734.5M-4.64-5740.5H-6.7" stroke="#2751ad" stroke-width="4" fill="none"/><path d="M750.75-5740.5l-14.27 4.62v-9.27z" stroke="#2751ad" stroke-width="4" fill="#2751ad"/><g><use xlink:href="#Z" transform="matrix(1,0,0,1,278.2922911431769,-5787.517397905542) translate(0 17.21640914091409)"/><use xlink:href="#aa" transform="matrix(1,0,0,1,278.2922911431769,-5787.517397905542) translate(36.56751417329233 17.21640914091409)"/><use xlink:href="#ab" transform="matrix(1,0,0,1,278.2922911431769,-5787.517397905542) translate(76.73624296023353 17.21640914091409)"/><use xlink:href="#ac" transform="matrix(1,0,0,1,278.2922911431769,-5787.517397905542) translate(0 38.71956531590659)"/><use xlink:href="#ad" transform="matrix(1,0,0,1,278.2922911431769,-5787.517397905542) translate(60.58718176505152 38.71956531590659)"/></g><path d="M755.22-5660.7H16.05M755.17-5660.7h2.05" stroke="#2751ad" stroke-width="4" fill="none"/><path d="M-.22-5660.7l14.27-4.62v9.27z" stroke="#2751ad" stroke-width="4" fill="#2751ad"/><g><use xlink:href="#C" transform="matrix(1,0,0,1,280.11025370115135,-5707.69516679443) translate(0 17.21640914091409)"/><use xlink:href="#ae" transform="matrix(1,0,0,1,280.11025370115135,-5707.69516679443) translate(71.80735163360087 17.21640914091409)"/><use xlink:href="#u" transform="matrix(1,0,0,1,280.11025370115135,-5707.69516679443) translate(123.31773704714223 17.21640914091409)"/><use xlink:href="#af" transform="matrix(1,0,0,1,280.11025370115135,-5707.69516679443) translate(139.7618375118762 17.21640914091409)"/><use xlink:href="#ag" transform="matrix(1,0,0,1,280.11025370115135,-5707.69516679443) translate(0 38.71956531590659)"/><use xlink:href="#ah" transform="matrix(1,0,0,1,280.11025370115135,-5707.69516679443) translate(85.96923657209472 38.71956531590659)"/></g><path d="M13.3-5640h402.1l16 16v64H13.3z" stroke="#2751ad" stroke-width="2" fill="#2751ad"/><path d="M415.4-5639.05v15.05h15.04" stroke="#2751ad" stroke-width="2" fill="#2751ad"/><g><use xlink:href="#ai" transform="matrix(1,0,0,1,18.310546875,-5635) translate(9.459201388888829 30.27777777777778)"/><use xlink:href="#aj" transform="matrix(1,0,0,1,18.310546875,-5635) translate(80.07552083333329 30.27777777777778)"/><use xlink:href="#ak" transform="matrix(1,0,0,1,18.310546875,-5635) translate(27.72591145833337 57.165798611111114)"/><use xlink:href="#al" transform="matrix(1,0,0,1,18.310546875,-5635) translate(127.71506076388891 57.165798611111114)"/><use xlink:href="#am" transform="matrix(1,0,0,1,18.310546875,-5635) translate(191.96202256944446 57.165798611111114)"/><use xlink:href="#an" transform="matrix(1,0,0,1,18.310546875,-5635) translate(316.4411892361111 57.165798611111114)"/></g><defs><path fill="#f2f3f5" d="M135 0v-1490h581c339 0 533 192 533 485 0 204-94 351-264 424L1302 0H964L680-532H440V0H135zm305-779h220c186 0 274-77 274-226 0-150-88-233-275-233H440v459" id="ao"/><path fill="#f2f3f5" d="M633 22C291 22 81-200 81-553c0-345 210-579 537-579 292 0 525 185 525 567v84H378c7 183 109 277 260 277 105 0 184-46 216-132l272 51C1071-99 893 22 633 22zM380-669h474c-15-146-94-237-233-237-143 0-229 99-241 237" id="ap"/><path fill="#f2f3f5" d="M572 22C302 22 117-98 78-306l279-48c29 105 101 156 224 156 114 0 185-48 185-115 0-118-228-130-337-155-215-49-322-150-322-317 0-215 187-347 470-347 265 0 424 116 466 298l-266 47c-24-76-87-130-196-130-98 0-174 46-174 113 0 56 38 95 144 117l201 40c216 44 320 143 320 302 0 220-207 367-500 367" id="aq"/><path fill="#f2f3f5" d="M628 22C291 22 81-210 81-554c0-346 210-578 547-578 336 0 547 232 547 578 0 344-211 576-547 576zm0-236c160 0 242-146 242-341 0-197-82-341-242-341S387-753 387-555c0 195 81 341 241 341" id="ar"/><path fill="#f2f3f5" d="M513 14c-232 0-385-159-385-421v-711h300v659c0 139 76 222 202 222 127 0 217-86 217-234v-647h301V0H864l-4-232C797-74 683 14 513 14" id="as"/><path fill="#f2f3f5" d="M128 0v-1118h290v195h12c54-169 184-238 367-200v268c-27-8-86-15-130-15-138 0-239 95-239 234V0H128" id="at"/><path fill="#f2f3f5" d="M628 22C291 22 81-210 81-554c0-346 210-578 547-578 265 0 455 142 497 372l-279 52c-25-116-99-188-215-188-160 0-244 139-244 341 0 200 84 341 244 341 116 0 193-74 217-195l279 51C1085-123 896 22 628 22" id="au"/><g id="a"><use transform="matrix(0.010850694444444444,0,0,0.010850694444444444,0,0)" xlink:href="#ao"/><use transform="matrix(0.010850694444444444,0,0,0.010850694444444444,14.322916666666666,0)" xlink:href="#ap"/><use transform="matrix(0.010850694444444444,0,0,0.010850694444444444,27.56076388888889,0)" xlink:href="#aq"/><use transform="matrix(0.010850694444444444,0,0,0.010850694444444444,40.006510416666664,0)" xlink:href="#ar"/><use transform="matrix(0.010850694444444444,0,0,0.010850694444444444,53.634982638888886,0)" xlink:href="#as"/><use transform="matrix(0.010850694444444444,0,0,0.010850694444444444,67.46961805555556,0)" xlink:href="#at"/><use transform="matrix(0.010850694444444444,0,0,0.010850694444444444,75.9765625,0)" xlink:href="#au"/><use transform="matrix(0.010850694444444444,0,0,0.010850694444444444,89.05164930555556,0)" xlink:href="#ap"/></g><path fill="#f2f3f5" d="M789 20C394 20 94-260 94-744c0-487 300-766 695-766s695 279 695 766c0 485-300 764-695 764zm0-271c231 0 385-174 385-493 0-321-154-495-385-495s-385 175-385 495c0 319 154 493 385 493" id="av"/><path fill="#f2f3f5" d="M361 0L31-1118h315c68 295 127 523 188 845 63-317 128-551 199-845h276c71 296 131 525 196 846 57-321 119-552 186-846h319L1378 0h-305c-73-261-148-486-204-771C813-484 740-261 666 0H361" id="aw"/><path fill="#f2f3f5" d="M428-647V0H128v-1118h283l4 231c63-156 176-245 348-245 232 0 384 159 384 421V0H847v-659c0-139-76-222-202-222-128 0-217 86-217 234" id="ax"/><g id="b"><use transform="matrix(0.010850694444444444,0,0,0.010850694444444444,0,0)" xlink:href="#av"/><use transform="matrix(0.010850694444444444,0,0,0.010850694444444444,17.122395833333332,0)" xlink:href="#aw"/><use transform="matrix(0.010850694444444444,0,0,0.010850694444444444,36.013454861111114,0)" xlink:href="#ax"/><use transform="matrix(0.010850694444444444,0,0,0.010850694444444444,49.84809027777778,0)" xlink:href="#ap"/><use transform="matrix(0.010850694444444444,0,0,0.010850694444444444,63.0859375,0)" xlink:href="#at"/></g><path fill="#f2f3f5" d="M169-607c0-330 107-732 258-974h279c-145 311-231 674-231 974 0 262 67 512 231 886H427C258-1 169-307 169-607" id="ay"/><path fill="#f2f3f5" d="M750 21c-371 0-615-218-615-544v-967h305v942c0 174 123 299 310 299s309-125 309-299v-942h306v967c0 326-247 544-615 544" id="az"/><path fill="#f2f3f5" d="M67 279c166-379 230-627 230-886 0-300-86-663-230-974h278c151 241 258 644 258 974 0 302-90 608-258 886H67" id="aA"/><g id="c"><use transform="matrix(0.010850694444444444,0,0,0.010850694444444444,0,0)" xlink:href="#ay"/><use transform="matrix(0.010850694444444444,0,0,0.010850694444444444,8.37673611111111,0)" xlink:href="#az"/><use transform="matrix(0.010850694444444444,0,0,0.010850694444444444,24.641927083333332,0)" xlink:href="#aq"/><use transform="matrix(0.010850694444444444,0,0,0.010850694444444444,37.08767361111111,0)" xlink:href="#ap"/><use transform="matrix(0.010850694444444444,0,0,0.010850694444444444,50.32552083333333,0)" xlink:href="#at"/><use transform="matrix(0.010850694444444444,0,0,0.010850694444444444,59.374999999999986,0)" xlink:href="#aA"/></g><path fill="#f2f3f5" d="M786 20C389 20 94-260 94-744c0-487 299-766 692-766 339 0 597 194 641 529h-309c-28-162-156-258-326-258-233 0-388 179-388 495 0 323 157 493 387 493 170 0 298-97 328-259h309c-34 277-266 530-642 530" id="aB"/><path fill="#f2f3f5" d="M428-1490V0H128v-1490h300" id="aC"/><path fill="#f2f3f5" d="M128 0v-1118h300V0H128zm150-1264c-91 0-165-68-165-154 0-85 74-154 165-154 90 0 165 69 165 154 0 86-75 154-165 154" id="aD"/><path fill="#f2f3f5" d="M683-1118v229H474v562c0 71 29 104 102 104 23 0 73-7 95-13l43 225C647 9 580 16 520 16 296 16 174-96 174-301v-588H20v-229h154v-266h300v266h209" id="aE"/><g id="d"><use transform="matrix(0.010850694444444444,0,0,0.010850694444444444,0,0)" xlink:href="#aB"/><use transform="matrix(0.010850694444444444,0,0,0.010850694444444444,16.438802083333332,0)" xlink:href="#aC"/><use transform="matrix(0.010850694444444444,0,0,0.010850694444444444,22.4609375,0)" xlink:href="#aD"/><use transform="matrix(0.010850694444444444,0,0,0.010850694444444444,28.483072916666664,0)" xlink:href="#ap"/><use transform="matrix(0.010850694444444444,0,0,0.010850694444444444,41.720920138888886,0)" xlink:href="#ax"/><use transform="matrix(0.010850694444444444,0,0,0.010850694444444444,55.55555555555556,0)" xlink:href="#aE"/></g><path fill="#f2f3f5" d="M135 0v-1490h591c327 0 492 160 492 383 0 177-115 286-268 320v15c168 8 326 140 326 361 0 236-176 411-512 411H135zm305-251h264c179 0 258-76 258-189 0-125-97-215-250-215H440v404zm0-613h241c131 0 228-74 228-194 0-109-79-183-222-183H440v377" id="aF"/><path fill="#f2f3f5" d="M768-1560L288 224H28l480-1784h260" id="aG"/><path fill="#f2f3f5" d="M49 0l509-1490h400L1480 0h-339l-115-346H497L386 0H49zm524-585h374c-75-213-124-402-192-666-66 268-110 453-182 666" id="aH"/><path fill="#f2f3f5" d="M128 418v-1536h295v188h14c41-89 129-202 319-202 248 0 453 193 453 575 0 372-197 576-455 576-183 0-275-108-317-198h-9v597H128zm534-640c156 0 240-139 240-336 0-196-83-334-240-334-154 0-241 131-241 334 0 202 88 336 241 336" id="aI"/><g id="e"><use transform="matrix(0.010850694444444444,0,0,0.010850694444444444,0,0)" xlink:href="#ay"/><use transform="matrix(0.010850694444444444,0,0,0.010850694444444444,8.778211805555555,0)" xlink:href="#aF"/><use transform="matrix(0.010850694444444444,0,0,0.010850694444444444,23.48090277777778,0)" xlink:href="#at"/><use transform="matrix(0.010850694444444444,0,0,0.010850694444444444,31.98784722222222,0)" xlink:href="#ar"/><use transform="matrix(0.010850694444444444,0,0,0.010850694444444444,45.3125,0)" xlink:href="#aw"/><use transform="matrix(0.010850694444444444,0,0,0.010850694444444444,64.20355902777777,0)" xlink:href="#aq"/><use transform="matrix(0.010850694444444444,0,0,0.010850694444444444,76.64930555555554,0)" xlink:href="#ap"/><use transform="matrix(0.010850694444444444,0,0,0.010850694444444444,89.88715277777777,0)" xlink:href="#at"/><use transform="matrix(0.010850694444444444,0,0,0.010850694444444444,98.25303819444444,0)" xlink:href="#aG"/><use transform="matrix(0.010850694444444444,0,0,0.010850694444444444,106.33680555555556,0)" xlink:href="#aH"/><use transform="matrix(0.010850694444444444,0,0,0.010850694444444444,122.9275173611111,0)" xlink:href="#aI"/><use transform="matrix(0.010850694444444444,0,0,0.010850694444444444,136.93576388888889,0)" xlink:href="#aI"/><use transform="matrix(0.010850694444444444,0,0,0.010850694444444444,150.66189236111111,0)" xlink:href="#aA"/></g><path fill="#f2f3f5" d="M428-647V0H128v-1490h294v586c65-146 175-228 341-228 232 0 385 159 385 421V0H847v-659c0-139-76-222-202-222-128 0-217 86-217 234" id="aJ"/><path fill="#f2f3f5" d="M120 0v-182l551-686v-8H137v-242h897v199L514-250v8h539V0H120" id="aK"/><path fill="#f2f3f5" d="M440 22C227 22 68-92 68-313c0-250 202-322 422-343 195-21 271-24 271-105 0-95-63-149-175-149-116 0-187 57-211 129l-275-46c57-194 237-305 487-305 240 0 474 108 474 379V0H777v-155h-10C713-51 605 22 440 22zm85-211c140 0 238-93 238-211v-121c-37 26-156 42-222 51-111 16-185 59-185 149 0 87 70 132 169 132" id="aL"/><g id="f"><use transform="matrix(0.010850694444444444,0,0,0.010850694444444444,0,0)" xlink:href="#aH"/><use transform="matrix(0.010850694444444444,0,0,0.010850694444444444,16.590711805555554,0)" xlink:href="#as"/><use transform="matrix(0.010850694444444444,0,0,0.010850694444444444,30.42534722222222,0)" xlink:href="#aE"/><use transform="matrix(0.010850694444444444,0,0,0.010850694444444444,38.61762152777778,0)" xlink:href="#aJ"/><use transform="matrix(0.010850694444444444,0,0,0.010850694444444444,52.45225694444444,0)" xlink:href="#ar"/><use transform="matrix(0.010850694444444444,0,0,0.010850694444444444,66.08072916666666,0)" xlink:href="#at"/><use transform="matrix(0.010850694444444444,0,0,0.010850694444444444,75.29296875,0)" xlink:href="#aD"/><use transform="matrix(0.010850694444444444,0,0,0.010850694444444444,81.31510416666667,0)" xlink:href="#aK"/><use transform="matrix(0.010850694444444444,0,0,0.010850694444444444,94.04296875,0)" xlink:href="#aL"/><use transform="matrix(0.010850694444444444,0,0,0.010850694444444444,106.94444444444444,0)" xlink:href="#aE"/><use transform="matrix(0.010850694444444444,0,0,0.010850694444444444,115.08246527777777,0)" xlink:href="#aD"/><use transform="matrix(0.010850694444444444,0,0,0.010850694444444444,121.10460069444444,0)" xlink:href="#ar"/><use transform="matrix(0.010850694444444444,0,0,0.010850694444444444,134.73307291666666,0)" xlink:href="#ax"/></g><path fill="#f2f3f5" d="M681 22C323 22 94-145 85-462h297c10 151 131 226 296 226 163 0 271-77 271-190 0-102-95-149-257-189l-164-41c-252-61-403-188-403-405 0-269 236-449 560-449 330 0 546 183 551 445H941c-11-119-106-188-259-188-156 0-244 72-244 172-3 156 226 185 373 221 250 61 445 186 445 436 0 271-213 446-575 446" id="aM"/><path fill="#f2f3f5" d="M443 0L31-1118h319c90 293 199 572 268 885 66-313 175-593 264-885h315L784 0H443" id="aN"/><g id="g"><use transform="matrix(0.010850694444444444,0,0,0.010850694444444444,0,0)" xlink:href="#aM"/><use transform="matrix(0.010850694444444444,0,0,0.010850694444444444,14.55078125,0)" xlink:href="#ap"/><use transform="matrix(0.010850694444444444,0,0,0.010850694444444444,27.78862847222222,0)" xlink:href="#at"/><use transform="matrix(0.010850694444444444,0,0,0.010850694444444444,37.18532986111111,0)" xlink:href="#aN"/><use transform="matrix(0.010850694444444444,0,0,0.010850694444444444,50.10850694444444,0)" xlink:href="#ap"/><use transform="matrix(0.010850694444444444,0,0,0.010850694444444444,63.346354166666664,0)" xlink:href="#at"/></g><g id="h"><use transform="matrix(0.010850694444444444,0,0,0.010850694444444444,0,0)" xlink:href="#aM"/><use transform="matrix(0.010850694444444444,0,0,0.010850694444444444,14.55078125,0)" xlink:href="#ap"/><use transform="matrix(0.010850694444444444,0,0,0.010850694444444444,27.78862847222222,0)" xlink:href="#at"/><use transform="matrix(0.010850694444444444,0,0,0.010850694444444444,37.18532986111111,0)" xlink:href="#aN"/><use transform="matrix(0.010850694444444444,0,0,0.010850694444444444,50.10850694444444,0)" xlink:href="#ap"/><use transform="matrix(0.010850694444444444,0,0,0.010850694444444444,63.346354166666664,0)" xlink:href="#at"/></g><path fill="#f2f3f5" d="M135 0v-1490h581c339 0 533 210 533 503 0 295-197 500-540 500H440V0H135zm305-733h220c186 0 274-104 274-254s-88-251-275-251H440v505" id="aO"/><path fill="#f2f3f5" d="M440-1490V0H135v-1490h305" id="aP"/><g id="i"><use transform="matrix(0.010850694444444444,0,0,0.010850694444444444,0,0)" xlink:href="#ay"/><use transform="matrix(0.010850694444444444,0,0,0.010850694444444444,8.37673611111111,0)" xlink:href="#aH"/><use transform="matrix(0.010850694444444444,0,0,0.010850694444444444,24.967447916666664,0)" xlink:href="#aO"/><use transform="matrix(0.010850694444444444,0,0,0.010850694444444444,39.36631944444444,0)" xlink:href="#aP"/><use transform="matrix(0.010850694444444444,0,0,0.010850694444444444,46.00694444444444,0)" xlink:href="#aA"/></g><path d="M370-1490V0H180v-1490h190" id="aQ"/><path d="M338-670V0H158v-1118h173l1 207c72-158 192-221 342-221 226 0 378 139 378 422V0H872v-695c0-172-96-275-252-275-161 0-282 109-282 300" id="aR"/><path d="M158 0v-1118h180V0H158zm91-1301c-68 0-125-53-125-119s57-119 125-119c69 0 126 53 126 119s-57 119-126 119" id="aS"/><path d="M598-1118v154H368v674c0 100 37 144 132 144 23 0 62-6 92-12L629-6c-37 13-88 20-134 20-193 0-307-107-307-290v-688H20v-154h168v-266h180v266h230" id="aT"/><path d="M471 26C259 26 90-98 90-318c0-256 228-303 435-329 202-27 287-16 287-108 0-139-79-219-234-219-161 0-248 86-283 164l-173-57c86-203 278-265 451-265 150 0 419 46 419 395V0H815v-152h-12C765-73 660 26 471 26zm31-159c199 0 310-134 310-271v-155c-30 35-226 55-295 64-131 17-246 59-246 186 0 116 97 176 231 176" id="aU"/><path d="M628 24c-324 0-524-230-524-574 0-343 198-582 503-582 237 0 487 146 487 559v75H286c9 234 145 362 343 362 132 0 231-58 273-172l174 48C1024-91 857 24 628 24zM287-650h624c-17-190-120-322-304-322-192 0-309 151-320 322" id="aV"/><g id="j"><use transform="matrix(0.008677625575057506,0,0,0.008677625575057506,0,0)" xlink:href="#aQ"/><use transform="matrix(0.008677625575057506,0,0,0.008677625575057506,4.772694066281629,0)" xlink:href="#aR"/><use transform="matrix(0.008677625575057506,0,0,0.008677625575057506,15.272621012101212,0)" xlink:href="#aS"/><use transform="matrix(0.008677625575057506,0,0,0.008677625575057506,19.576723297329735,0)" xlink:href="#aT"/><use transform="matrix(0.008677625575057506,0,0,0.008677625575057506,25.390732432618265,0)" xlink:href="#aS"/><use transform="matrix(0.008677625575057506,0,0,0.008677625575057506,29.69483471784679,0)" xlink:href="#aU"/><use transform="matrix(0.008677625575057506,0,0,0.008677625575057506,39.67410412916292,0)" xlink:href="#aT"/><use transform="matrix(0.008677625575057506,0,0,0.008677625575057506,45.3145607529503,0)" xlink:href="#aV"/></g><path d="M338-1490V0H158v-1490h180" id="aW"/><path d="M613 24c-304 0-509-231-509-576 0-350 205-580 509-580 305 0 511 230 511 580 0 345-206 576-511 576zm0-161c226 0 329-195 329-415 0-222-103-419-329-419-223 0-326 196-326 419 0 220 103 415 326 415" id="aX"/><path d="M611 442c-248 0-391-105-460-228l146-94c47 65 117 165 314 165 178 0 307-82 307-266v-224h-17C863-141 792-18 576-18c-268 0-472-195-472-546 0-346 197-568 476-568 216 0 288 133 326 193h17v-179h175V29c0 289-215 413-487 413zm-5-620c203 0 314-146 314-390 0-237-108-403-314-403-213 0-319 180-319 403 0 230 109 390 319 390" id="aY"/><path d="M692-1560L212 224H46l480-1784h166" id="aZ"/><path d="M537 14c-226 0-379-139-379-422v-710h180v695c0 172 97 275 253 275 160 0 281-109 281-300v-670h181V0H879v-209C806-46 684 14 537 14" id="ba"/><path d="M338-670V0H158v-1490h180v566c73-149 190-208 336-208 226 0 379 139 379 422V0H872v-695c0-172-96-275-252-275-161 0-282 109-282 300" id="bb"/><path d="M158 0v-1118h174v172h12c41-113 157-188 290-188 26 0 70 2 91 3v181c-11-2-60-10-108-10-161 0-279 109-279 260V0H158" id="bc"/><path d="M126 0v-134l627-806v-11H146v-167h839v143L376-178v11h629V0H126" id="bd"/><g id="k"><use transform="matrix(0.008677625575057506,0,0,0.008677625575057506,0,0)" xlink:href="#aW"/><use transform="matrix(0.008677625575057506,0,0,0.008677625575057506,4.304102285228523,0)" xlink:href="#aX"/><use transform="matrix(0.008677625575057506,0,0,0.008677625575057506,14.96022649139914,0)" xlink:href="#aY"/><use transform="matrix(0.008677625575057506,0,0,0.008677625575057506,25.859324213671368,0)" xlink:href="#aS"/><use transform="matrix(0.008677625575057506,0,0,0.008677625575057506,30.16342649889989,0)" xlink:href="#aR"/><use transform="matrix(0.008677625575057506,0,0,0.008677625575057506,40.663353444719476,0)" xlink:href="#aZ"/><use transform="matrix(0.008677625575057506,0,0,0.008677625575057506,47.06744111911192,0)" xlink:href="#aU"/><use transform="matrix(0.008677625575057506,0,0,0.008677625575057506,57.046710530428044,0)" xlink:href="#ba"/><use transform="matrix(0.008677625575057506,0,0,0.008677625575057506,67.55531510182269,0)" xlink:href="#aT"/><use transform="matrix(0.008677625575057506,0,0,0.008677625575057506,73.36932423711121,0)" xlink:href="#bb"/><use transform="matrix(0.008677625575057506,0,0,0.008677625575057506,83.87792880850586,0)" xlink:href="#aX"/><use transform="matrix(0.008677625575057506,0,0,0.008677625575057506,94.53405301467647,0)" xlink:href="#bc"/><use transform="matrix(0.008677625575057506,0,0,0.008677625575057506,101.50218635144765,0)" xlink:href="#aS"/><use transform="matrix(0.008677625575057506,0,0,0.008677625575057506,105.80628863667617,0)" xlink:href="#bd"/><use transform="matrix(0.008677625575057506,0,0,0.008677625575057506,115.3603543948145,0)" xlink:href="#aV"/></g><path d="M180 0v-1490h510c348 0 508 194 508 460 0 198-88 351-276 417L1256 0h-220L726-579c-117 2-238 0-356 1V0H180zm190-747h312c235 0 327-108 327-283 0-177-92-293-329-293H370v576" id="be"/><path d="M577 24c-279 0-473-224-473-580 0-354 195-576 474-576 218 0 287 134 324 193h14v-551h180V0H922v-173h-20C865-111 790 24 577 24zm27-161c203 0 314-172 314-421 0-247-108-413-314-413-212 0-317 181-317 413 0 235 108 421 317 421" id="bf"/><path d="M613 24c-304 0-509-231-509-576 0-350 205-580 509-580 216 0 392 114 453 309l-173 49c-33-115-133-197-280-197-223 0-326 196-326 419 0 220 103 415 326 415 150 0 252-85 285-206l172 49C1010-95 832 24 613 24" id="bg"/><g id="l"><use transform="matrix(0.008677625575057506,0,0,0.008677625575057506,0,0)" xlink:href="#be"/><use transform="matrix(0.008677625575057506,0,0,0.008677625575057506,11.176781740674068,0)" xlink:href="#aV"/><use transform="matrix(0.008677625575057506,0,0,0.008677625575057506,21.537866677292733,0)" xlink:href="#bf"/><use transform="matrix(0.008677625575057506,0,0,0.008677625575057506,32.41960914841485,0)" xlink:href="#aS"/><use transform="matrix(0.008677625575057506,0,0,0.008677625575057506,36.72371143364337,0)" xlink:href="#bc"/><use transform="matrix(0.008677625575057506,0,0,0.008677625575057506,43.119121482460756,0)" xlink:href="#aV"/><use transform="matrix(0.008677625575057506,0,0,0.008677625575057506,53.48020641907942,0)" xlink:href="#bg"/><use transform="matrix(0.008677625575057506,0,0,0.008677625575057506,63.633028341896704,0)" xlink:href="#aT"/></g><g id="m"><use transform="matrix(0.008677625575057506,0,0,0.008677625575057506,0,0)" xlink:href="#aT"/><use transform="matrix(0.008677625575057506,0,0,0.008677625575057506,5.640456623787379,0)" xlink:href="#aX"/></g><g id="n"><use transform="matrix(0.008677625575057506,0,0,0.008677625575057506,0,0)" xlink:href="#aZ"/><use transform="matrix(0.008677625575057506,0,0,0.008677625575057506,6.404087674392439,0)" xlink:href="#aU"/><use transform="matrix(0.008677625575057506,0,0,0.008677625575057506,16.38335708570857,0)" xlink:href="#ba"/><use transform="matrix(0.008677625575057506,0,0,0.008677625575057506,26.89196165710321,0)" xlink:href="#aT"/><use transform="matrix(0.008677625575057506,0,0,0.008677625575057506,32.70597079239174,0)" xlink:href="#bb"/><use transform="matrix(0.008677625575057506,0,0,0.008677625575057506,43.21457536378638,0)" xlink:href="#aX"/><use transform="matrix(0.008677625575057506,0,0,0.008677625575057506,53.870699569957,0)" xlink:href="#bc"/><use transform="matrix(0.008677625575057506,0,0,0.008677625575057506,60.83883290672818,0)" xlink:href="#aS"/><use transform="matrix(0.008677625575057506,0,0,0.008677625575057506,65.1429351919567,0)" xlink:href="#bd"/><use transform="matrix(0.008677625575057506,0,0,0.008677625575057506,74.69700095009502,0)" xlink:href="#aV"/></g><path d="M934 0v166H0V0h934" id="bh"/><path d="M128 359l88-567h206L266 359H128" id="bi"/><g id="o"><use transform="matrix(0.008677625575057506,0,0,0.008677625575057506,0,0)" xlink:href="#bg"/><use transform="matrix(0.008677625575057506,0,0,0.008677625575057506,10.152821922817283,0)" xlink:href="#aW"/><use transform="matrix(0.008677625575057506,0,0,0.008677625575057506,14.456924208045805,0)" xlink:href="#aS"/><use transform="matrix(0.008677625575057506,0,0,0.008677625575057506,18.76102649327433,0)" xlink:href="#aV"/><use transform="matrix(0.008677625575057506,0,0,0.008677625575057506,29.122111429892993,0)" xlink:href="#aR"/><use transform="matrix(0.008677625575057506,0,0,0.008677625575057506,39.62203837571258,0)" xlink:href="#aT"/><use transform="matrix(0.008677625575057506,0,0,0.008677625575057506,45.43604751100111,0)" xlink:href="#bh"/><use transform="matrix(0.008677625575057506,0,0,0.008677625575057506,54.13970596278378,0)" xlink:href="#aS"/><use transform="matrix(0.008677625575057506,0,0,0.008677625575057506,58.44380824801231,0)" xlink:href="#bf"/><use transform="matrix(0.008677625575057506,0,0,0.008677625575057506,69.32555071913443,0)" xlink:href="#bi"/></g><g id="p"><use transform="matrix(0.008677625575057506,0,0,0.008677625575057506,0,0)" xlink:href="#bc"/><use transform="matrix(0.008677625575057506,0,0,0.008677625575057506,6.395410048817382,0)" xlink:href="#aV"/><use transform="matrix(0.008677625575057506,0,0,0.008677625575057506,16.756494985436046,0)" xlink:href="#bf"/><use transform="matrix(0.008677625575057506,0,0,0.008677625575057506,27.63823745655816,0)" xlink:href="#aS"/><use transform="matrix(0.008677625575057506,0,0,0.008677625575057506,31.942339741786682,0)" xlink:href="#bc"/><use transform="matrix(0.008677625575057506,0,0,0.008677625575057506,38.337749790604065,0)" xlink:href="#aV"/><use transform="matrix(0.008677625575057506,0,0,0.008677625575057506,48.69883472722273,0)" xlink:href="#bg"/><use transform="matrix(0.008677625575057506,0,0,0.008677625575057506,58.85165665004001,0)" xlink:href="#aT"/><use transform="matrix(0.008677625575057506,0,0,0.008677625575057506,64.66566578532854,0)" xlink:href="#bh"/><use transform="matrix(0.008677625575057506,0,0,0.008677625575057506,72.77056807243225,0)" xlink:href="#ba"/><use transform="matrix(0.008677625575057506,0,0,0.008677625575057506,83.27917264382688,0)" xlink:href="#bc"/><use transform="matrix(0.008677625575057506,0,0,0.008677625575057506,90.24730598059807,0)" xlink:href="#aS"/><use transform="matrix(0.008677625575057506,0,0,0.008677625575057506,94.5514082658266,0)" xlink:href="#bi"/></g><path d="M538 24C308 24 148-78 108-271l171-41c32 123 123 178 257 178 156 0 256-77 256-169 0-77-54-128-164-154l-186-44c-203-48-300-148-300-305 0-192 176-326 414-326 230 0 351 112 402 269l-163 42c-31-80-94-158-238-158-133 0-233 69-233 162 0 83 57 129 188 160l169 40c203 48 298 149 298 302 0 196-179 339-441 339" id="bj"/><path d="M158 418v-1536h174v179h20c37-59 106-193 324-193 279 0 474 222 474 576 0 356-194 580-473 580-213 0-288-135-325-197h-14v591H158zm492-555c209 0 317-186 317-421 0-232-105-413-317-413-206 0-314 166-314 413 0 249 111 421 314 421" id="bk"/><g id="q"><use transform="matrix(0.008677625575057506,0,0,0.008677625575057506,0,0)" xlink:href="#bj"/><use transform="matrix(0.008677625575057506,0,0,0.008677625575057506,9.380513246637165,0)" xlink:href="#bg"/><use transform="matrix(0.008677625575057506,0,0,0.008677625575057506,19.533335169454446,0)" xlink:href="#aX"/><use transform="matrix(0.008677625575057506,0,0,0.008677625575057506,30.189459375625066,0)" xlink:href="#bk"/><use transform="matrix(0.008677625575057506,0,0,0.008677625575057506,41.07120184674717,0)" xlink:href="#aV"/><use transform="matrix(0.008677625575057506,0,0,0.008677625575057506,51.43228678336584,0)" xlink:href="#bi"/></g><g id="r"><use transform="matrix(0.008677625575057506,0,0,0.008677625575057506,0,0)" xlink:href="#bj"/><use transform="matrix(0.008677625575057506,0,0,0.008677625575057506,9.380513246637165,0)" xlink:href="#aT"/><use transform="matrix(0.008677625575057506,0,0,0.008677625575057506,15.281298637676269,0)" xlink:href="#aU"/><use transform="matrix(0.008677625575057506,0,0,0.008677625575057506,25.2605680489924,0)" xlink:href="#aT"/><use transform="matrix(0.008677625575057506,0,0,0.008677625575057506,30.90102467277978,0)" xlink:href="#aV"/><use transform="matrix(0.008677625575057506,0,0,0.008677625575057506,41.26210960939844,0)" xlink:href="#bi"/></g><path d="M140 405l46-156c120 36 205 19 263-150l32-93L54-1118h197c107 313 237 620 324 950 87-331 219-637 326-950h196L606 167c-68 178-176 259-334 259-64 0-113-12-132-21" id="bl"/><path d="M226-283v-166h904v166H226zm0-434v-166h904v166H226" id="bm"/><g id="s"><use transform="matrix(0.008677625575057506,0,0,0.008677625575057506,0,0)" xlink:href="#bc"/><use transform="matrix(0.008677625575057506,0,0,0.008677625575057506,6.395410048817382,0)" xlink:href="#aV"/><use transform="matrix(0.008677625575057506,0,0,0.008677625575057506,16.756494985436046,0)" xlink:href="#bj"/><use transform="matrix(0.008677625575057506,0,0,0.008677625575057506,26.13700823207321,0)" xlink:href="#bk"/><use transform="matrix(0.008677625575057506,0,0,0.008677625575057506,37.01875070319532,0)" xlink:href="#aX"/><use transform="matrix(0.008677625575057506,0,0,0.008677625575057506,47.67487490936594,0)" xlink:href="#aR"/><use transform="matrix(0.008677625575057506,0,0,0.008677625575057506,58.17480185518552,0)" xlink:href="#bj"/><use transform="matrix(0.008677625575057506,0,0,0.008677625575057506,67.55531510182269,0)" xlink:href="#aV"/><use transform="matrix(0.008677625575057506,0,0,0.008677625575057506,77.91640003844135,0)" xlink:href="#bh"/><use transform="matrix(0.008677625575057506,0,0,0.008677625575057506,86.02130232554507,0)" xlink:href="#aT"/><use transform="matrix(0.008677625575057506,0,0,0.008677625575057506,92.1824164838359,0)" xlink:href="#bl"/><use transform="matrix(0.008677625575057506,0,0,0.008677625575057506,102.17036352072708,0)" xlink:href="#bk"/><use transform="matrix(0.008677625575057506,0,0,0.008677625575057506,113.05210599184919,0)" xlink:href="#aV"/><use transform="matrix(0.008677625575057506,0,0,0.008677625575057506,123.41319092846786,0)" xlink:href="#bm"/><use transform="matrix(0.008677625575057506,0,0,0.008677625575057506,135.17137358267078,0)" xlink:href="#bg"/><use transform="matrix(0.008677625575057506,0,0,0.008677625575057506,145.32419550548806,0)" xlink:href="#aX"/><use transform="matrix(0.008677625575057506,0,0,0.008677625575057506,155.98031971165872,0)" xlink:href="#bf"/><use transform="matrix(0.008677625575057506,0,0,0.008677625575057506,166.86206218278082,0)" xlink:href="#aV"/></g><path d="M52 0l541-1490h220L1361 0h-200l-149-416H398L254 0H52zm404-582h497c-103-290-145-390-251-756-108 377-145 460-246 756" id="bn"/><g id="t"><use transform="matrix(0.008677625575057506,0,0,0.008677625575057506,0,0)" xlink:href="#bn"/><use transform="matrix(0.008677625575057506,0,0,0.008677625575057506,12.261484937556256,0)" xlink:href="#ba"/><use transform="matrix(0.008677625575057506,0,0,0.008677625575057506,22.770089508950896,0)" xlink:href="#aT"/><use transform="matrix(0.008677625575057506,0,0,0.008677625575057506,28.584098644239425,0)" xlink:href="#bb"/><use transform="matrix(0.008677625575057506,0,0,0.008677625575057506,39.09270321563407,0)" xlink:href="#aV"/><use transform="matrix(0.008677625575057506,0,0,0.008677625575057506,49.45378815225273,0)" xlink:href="#aR"/><use transform="matrix(0.008677625575057506,0,0,0.008677625575057506,59.95371509807231,0)" xlink:href="#aT"/><use transform="matrix(0.008677625575057506,0,0,0.008677625575057506,65.76772423336084,0)" xlink:href="#aS"/><use transform="matrix(0.008677625575057506,0,0,0.008677625575057506,70.07182651858936,0)" xlink:href="#bg"/><use transform="matrix(0.008677625575057506,0,0,0.008677625575057506,80.3982009529078,0)" xlink:href="#aU"/><use transform="matrix(0.008677625575057506,0,0,0.008677625575057506,90.37747036422394,0)" xlink:href="#aT"/><use transform="matrix(0.008677625575057506,0,0,0.008677625575057506,96.01792698801131,0)" xlink:href="#aV"/></g><path d="M580 20c-295 0-476-179-476-409 0-189 123-290 294-416-104-125-173-226-173-362 0-197 144-337 365-337 224 0 362 144 362 321 0 185-174 312-306 405l319 387c38-75 61-165 61-267h173c0 208-62 332-120 406L1287 0h-217L967-124C868-27 716 20 580 20zm279-273L507-675l-51 38c-123 91-167 162-167 254 0 147 113 246 278 246 107 0 210-41 292-116zM538-908l97-72c54-40 136-101 136-206 0-95-68-163-176-163-113 0-189 74-189 181 0 90 53 164 132 260" id="bo"/><use transform="matrix(0.008677625575057506,0,0,0.008677625575057506,0,0)" xlink:href="#bo" id="u"/><g id="v"><use transform="matrix(0.008677625575057506,0,0,0.008677625575057506,0,0)" xlink:href="#bg"/><use transform="matrix(0.008677625575057506,0,0,0.008677625575057506,10.152821922817283,0)" xlink:href="#aX"/><use transform="matrix(0.008677625575057506,0,0,0.008677625575057506,20.808946128987902,0)" xlink:href="#aW"/><use transform="matrix(0.008677625575057506,0,0,0.008677625575057506,25.11304841421643,0)" xlink:href="#aW"/><use transform="matrix(0.008677625575057506,0,0,0.008677625575057506,29.41715069944495,0)" xlink:href="#aV"/><use transform="matrix(0.008677625575057506,0,0,0.008677625575057506,39.778235636063606,0)" xlink:href="#bg"/><use transform="matrix(0.008677625575057506,0,0,0.008677625575057506,49.931057558880894,0)" xlink:href="#aT"/></g><g id="w"><use transform="matrix(0.008677625575057506,0,0,0.008677625575057506,0,0)" xlink:href="#bg"/><use transform="matrix(0.008677625575057506,0,0,0.008677625575057506,10.152821922817283,0)" xlink:href="#aX"/><use transform="matrix(0.008677625575057506,0,0,0.008677625575057506,20.808946128987902,0)" xlink:href="#aR"/><use transform="matrix(0.008677625575057506,0,0,0.008677625575057506,31.308873074807487,0)" xlink:href="#bj"/><use transform="matrix(0.008677625575057506,0,0,0.008677625575057506,40.689386321444644,0)" xlink:href="#aV"/><use transform="matrix(0.008677625575057506,0,0,0.008677625575057506,51.05047125806331,0)" xlink:href="#aR"/><use transform="matrix(0.008677625575057506,0,0,0.008677625575057506,61.55039820388289,0)" xlink:href="#aT"/></g><g id="x"><use transform="matrix(0.008677625575057506,0,0,0.008677625575057506,0,0)" xlink:href="#bc"/><use transform="matrix(0.008677625575057506,0,0,0.008677625575057506,6.395410048817382,0)" xlink:href="#aV"/><use transform="matrix(0.008677625575057506,0,0,0.008677625575057506,16.756494985436046,0)" xlink:href="#bf"/><use transform="matrix(0.008677625575057506,0,0,0.008677625575057506,27.63823745655816,0)" xlink:href="#aS"/><use transform="matrix(0.008677625575057506,0,0,0.008677625575057506,31.942339741786682,0)" xlink:href="#bc"/><use transform="matrix(0.008677625575057506,0,0,0.008677625575057506,38.337749790604065,0)" xlink:href="#aV"/><use transform="matrix(0.008677625575057506,0,0,0.008677625575057506,48.69883472722273,0)" xlink:href="#bg"/><use transform="matrix(0.008677625575057506,0,0,0.008677625575057506,58.85165665004001,0)" xlink:href="#aT"/><use transform="matrix(0.008677625575057506,0,0,0.008677625575057506,64.66566578532854,0)" xlink:href="#bh"/><use transform="matrix(0.008677625575057506,0,0,0.008677625575057506,72.77056807243225,0)" xlink:href="#ba"/><use transform="matrix(0.008677625575057506,0,0,0.008677625575057506,83.27917264382688,0)" xlink:href="#bc"/><use transform="matrix(0.008677625575057506,0,0,0.008677625575057506,90.24730598059807,0)" xlink:href="#aS"/></g><path d="M409 0L70-1118h191c89 329 165 560 243 925 75-353 154-601 240-925h192c85 325 161 564 235 922 77-354 157-598 244-922h191L1267 0h-179c-86-307-176-590-250-913C763-588 675-308 588 0H409" id="bp"/><g id="y"><use transform="matrix(0.008677625575057506,0,0,0.008677625575057506,0,0)" xlink:href="#bp"/><use transform="matrix(0.008677625575057506,0,0,0.008677625575057506,14.54370046379638,0)" xlink:href="#aS"/><use transform="matrix(0.008677625575057506,0,0,0.008677625575057506,18.847802749024904,0)" xlink:href="#aT"/><use transform="matrix(0.008677625575057506,0,0,0.008677625575057506,24.661811884313433,0)" xlink:href="#bb"/></g><g id="z"><use transform="matrix(0.008677625575057506,0,0,0.008677625575057506,0,0)" xlink:href="#aU"/><use transform="matrix(0.008677625575057506,0,0,0.008677625575057506,9.979269411316132,0)" xlink:href="#ba"/><use transform="matrix(0.008677625575057506,0,0,0.008677625575057506,20.487873982710774,0)" xlink:href="#aT"/><use transform="matrix(0.008677625575057506,0,0,0.008677625575057506,26.301883117999303,0)" xlink:href="#bb"/><use transform="matrix(0.008677625575057506,0,0,0.008677625575057506,36.810487689393945,0)" xlink:href="#aX"/><use transform="matrix(0.008677625575057506,0,0,0.008677625575057506,47.46661189556456,0)" xlink:href="#bc"/><use transform="matrix(0.008677625575057506,0,0,0.008677625575057506,54.43474523233574,0)" xlink:href="#aS"/><use transform="matrix(0.008677625575057506,0,0,0.008677625575057506,58.73884751756427,0)" xlink:href="#bd"/><use transform="matrix(0.008677625575057506,0,0,0.008677625575057506,68.55324204295431,0)" xlink:href="#aU"/><use transform="matrix(0.008677625575057506,0,0,0.008677625575057506,78.53251145427043,0)" xlink:href="#aT"/><use transform="matrix(0.008677625575057506,0,0,0.008677625575057506,84.34652058955896,0)" xlink:href="#aS"/><use transform="matrix(0.008677625575057506,0,0,0.008677625575057506,88.65062287478749,0)" xlink:href="#aX"/><use transform="matrix(0.008677625575057506,0,0,0.008677625575057506,99.3067470809581,0)" xlink:href="#aR"/></g><g id="A"><use transform="matrix(0.008677625575057506,0,0,0.008677625575057506,0,0)" xlink:href="#bg"/><use transform="matrix(0.008677625575057506,0,0,0.008677625575057506,10.152821922817283,0)" xlink:href="#aX"/><use transform="matrix(0.008677625575057506,0,0,0.008677625575057506,20.808946128987902,0)" xlink:href="#bf"/><use transform="matrix(0.008677625575057506,0,0,0.008677625575057506,31.690688600110015,0)" xlink:href="#aV"/></g><g id="B"><use transform="matrix(0.008677625575057506,0,0,0.008677625575057506,0,0)" xlink:href="#bj"/><use transform="matrix(0.008677625575057506,0,0,0.008677625575057506,9.380513246637165,0)" xlink:href="#aT"/><use transform="matrix(0.008677625575057506,0,0,0.008677625575057506,15.281298637676269,0)" xlink:href="#aU"/><use transform="matrix(0.008677625575057506,0,0,0.008677625575057506,25.2605680489924,0)" xlink:href="#aT"/><use transform="matrix(0.008677625575057506,0,0,0.008677625575057506,30.90102467277978,0)" xlink:href="#aV"/></g><path d="M600 0L52-1490h200c166 485 304 806 458 1336 156-533 285-846 449-1336h202L819 0H600" id="bq"/><g id="C"><use transform="matrix(0.008677625575057506,0,0,0.008677625575057506,0,0)" xlink:href="#bq"/><use transform="matrix(0.008677625575057506,0,0,0.008677625575057506,11.359011877750273,0)" xlink:href="#aU"/><use transform="matrix(0.008677625575057506,0,0,0.008677625575057506,21.33828128906641,0)" xlink:href="#aW"/><use transform="matrix(0.008677625575057506,0,0,0.008677625575057506,25.642383574294932,0)" xlink:href="#aS"/><use transform="matrix(0.008677625575057506,0,0,0.008677625575057506,29.946485859523456,0)" xlink:href="#bf"/><use transform="matrix(0.008677625575057506,0,0,0.008677625575057506,40.82822833064557,0)" xlink:href="#aU"/><use transform="matrix(0.008677625575057506,0,0,0.008677625575057506,50.80749774196171,0)" xlink:href="#aT"/><use transform="matrix(0.008677625575057506,0,0,0.008677625575057506,56.447954365749084,0)" xlink:href="#aV"/></g><path d="M180 0v-1490h908v168H370v486h669v168H370v500h727V0H180" id="br"/><path d="M65 0l393-574-370-544h210c88 136 192 297 267 435 67-142 176-302 264-435h206L661-564 1053 0H844c-94-144-206-310-287-458C484-308 366-142 273 0H65" id="bs"/><g id="D"><use transform="matrix(0.008677625575057506,0,0,0.008677625575057506,0,0)" xlink:href="#br"/><use transform="matrix(0.008677625575057506,0,0,0.008677625575057506,10.68215708289579,0)" xlink:href="#bs"/><use transform="matrix(0.008677625575057506,0,0,0.008677625575057506,19.98457169935744,0)" xlink:href="#bg"/><use transform="matrix(0.008677625575057506,0,0,0.008677625575057506,30.13739362217472,0)" xlink:href="#bb"/><use transform="matrix(0.008677625575057506,0,0,0.008677625575057506,40.64599819356936,0)" xlink:href="#aU"/><use transform="matrix(0.008677625575057506,0,0,0.008677625575057506,50.625267604885494,0)" xlink:href="#aR"/><use transform="matrix(0.008677625575057506,0,0,0.008677625575057506,61.125194550705075,0)" xlink:href="#aY"/><use transform="matrix(0.008677625575057506,0,0,0.008677625575057506,72.0242922729773,0)" xlink:href="#aV"/></g><path d="M678-1118v154H420V0H240v-964H20v-154h220v-149c0-194 155-293 318-293 85 0 141 18 168 30l-50 154c-19-6-47-17-97-17-111 0-159 58-159 166v109h258" id="bt"/><g id="E"><use transform="matrix(0.008677625575057506,0,0,0.008677625575057506,0,0)" xlink:href="#bt"/><use transform="matrix(0.008677625575057506,0,0,0.008677625575057506,6.05698265139014,0)" xlink:href="#aX"/><use transform="matrix(0.008677625575057506,0,0,0.008677625575057506,16.71310685756076,0)" xlink:href="#bc"/></g><path d="M158 0v-1490h180v865h22l478-493h223L593-638 1096 0H865L456-523 338-412V0H158" id="bu"/><g id="F"><use transform="matrix(0.008677625575057506,0,0,0.008677625575057506,0,0)" xlink:href="#aT"/><use transform="matrix(0.008677625575057506,0,0,0.008677625575057506,5.640456623787379,0)" xlink:href="#aX"/><use transform="matrix(0.008677625575057506,0,0,0.008677625575057506,16.296580829957996,0)" xlink:href="#bu"/><use transform="matrix(0.008677625575057506,0,0,0.008677625575057506,25.651061199869986,0)" xlink:href="#aV"/><use transform="matrix(0.008677625575057506,0,0,0.008677625575057506,36.01214613648865,0)" xlink:href="#aR"/><use transform="matrix(0.008677625575057506,0,0,0.008677625575057506,46.512073082308234,0)" xlink:href="#bj"/></g><g id="G"><use transform="matrix(0.008677625575057506,0,0,0.008677625575057506,0,0)" xlink:href="#aU"/><use transform="matrix(0.008677625575057506,0,0,0.008677625575057506,9.979269411316132,0)" xlink:href="#aT"/></g><g id="H"><use transform="matrix(0.008677625575057506,0,0,0.008677625575057506,0,0)" xlink:href="#aZ"/><use transform="matrix(0.008677625575057506,0,0,0.008677625575057506,6.404087674392439,0)" xlink:href="#aT"/><use transform="matrix(0.008677625575057506,0,0,0.008677625575057506,12.044544298179819,0)" xlink:href="#aX"/><use transform="matrix(0.008677625575057506,0,0,0.008677625575057506,22.70066850435044,0)" xlink:href="#bu"/><use transform="matrix(0.008677625575057506,0,0,0.008677625575057506,32.05514887426243,0)" xlink:href="#aV"/><use transform="matrix(0.008677625575057506,0,0,0.008677625575057506,42.416233810881096,0)" xlink:href="#aR"/></g><g id="I"><use transform="matrix(0.008677625575057506,0,0,0.008677625575057506,0,0)" xlink:href="#bg"/><use transform="matrix(0.008677625575057506,0,0,0.008677625575057506,10.152821922817283,0)" xlink:href="#aW"/><use transform="matrix(0.008677625575057506,0,0,0.008677625575057506,14.456924208045805,0)" xlink:href="#aS"/><use transform="matrix(0.008677625575057506,0,0,0.008677625575057506,18.76102649327433,0)" xlink:href="#aV"/><use transform="matrix(0.008677625575057506,0,0,0.008677625575057506,29.122111429892993,0)" xlink:href="#aR"/><use transform="matrix(0.008677625575057506,0,0,0.008677625575057506,39.62203837571258,0)" xlink:href="#aT"/><use transform="matrix(0.008677625575057506,0,0,0.008677625575057506,45.43604751100111,0)" xlink:href="#bh"/><use transform="matrix(0.008677625575057506,0,0,0.008677625575057506,53.54094979810482,0)" xlink:href="#bj"/><use transform="matrix(0.008677625575057506,0,0,0.008677625575057506,62.921463044741984,0)" xlink:href="#aV"/><use transform="matrix(0.008677625575057506,0,0,0.008677625575057506,73.28254798136065,0)" xlink:href="#bg"/><use transform="matrix(0.008677625575057506,0,0,0.008677625575057506,83.43536990417795,0)" xlink:href="#bc"/><use transform="matrix(0.008677625575057506,0,0,0.008677625575057506,89.83077995299533,0)" xlink:href="#aV"/><use transform="matrix(0.008677625575057506,0,0,0.008677625575057506,100.19186488961398,0)" xlink:href="#aT"/></g><path d="M218-607c0-325 108-727 258-974h175c-155 315-250 682-250 974 0 265 78 531 250 886H476C306-10 218-315 218-607" id="bv"/><g id="J"><use transform="matrix(0.008677625575057506,0,0,0.008677625575057506,0,0)" xlink:href="#bv"/><use transform="matrix(0.008677625575057506,0,0,0.008677625575057506,6.282600916341633,0)" xlink:href="#aX"/><use transform="matrix(0.008677625575057506,0,0,0.008677625575057506,16.938725122512253,0)" xlink:href="#bc"/></g><path d="M180 0v-1490h510c348 0 508 209 508 474 0 266-160 477-507 477H370V0H180zm190-706h312c236 0 327-133 327-310 0-176-91-307-329-307H370v617" id="bw"/><path d="M180 0v-1490h190c0 262 1 526-3 784 217-279 467-523 702-784h249L716-845 1319 0h-225L585-716 370-489V0H180" id="bx"/><path d="M783 20c-382 0-661-292-661-764 0-473 279-766 661-766 302 0 548 182 601 489h-190c-42-204-217-313-411-313-268 0-476 208-476 590 0 381 209 588 476 588 195 0 369-110 411-313h190c-52 303-296 489-601 489" id="by"/><path d="M96 279C273-86 346-350 346-607c0-292-95-659-250-974h175c150 246 258 650 258 974 0 297-91 602-258 886H96" id="bz"/><g id="K"><use transform="matrix(0.008677625575057506,0,0,0.008677625575057506,0,0)" xlink:href="#bw"/><use transform="matrix(0.008677625575057506,0,0,0.008677625575057506,11.350334252175218,0)" xlink:href="#bx"/><use transform="matrix(0.008677625575057506,0,0,0.008677625575057506,22.69199087877538,0)" xlink:href="#by"/><use transform="matrix(0.008677625575057506,0,0,0.008677625575057506,35.67371873906141,0)" xlink:href="#br"/><use transform="matrix(0.008677625575057506,0,0,0.008677625575057506,46.3558758219572,0)" xlink:href="#bz"/><use transform="matrix(0.008677625575057506,0,0,0.008677625575057506,52.83806212652516,0)" xlink:href="#bi"/></g><g id="L"><use transform="matrix(0.008677625575057506,0,0,0.008677625575057506,0,0)" xlink:href="#aY"/><use transform="matrix(0.008677625575057506,0,0,0.008677625575057506,10.899097722272227,0)" xlink:href="#bc"/><use transform="matrix(0.008677625575057506,0,0,0.008677625575057506,17.589547040641563,0)" xlink:href="#aU"/><use transform="matrix(0.008677625575057506,0,0,0.008677625575057506,27.568816451957694,0)" xlink:href="#aR"/><use transform="matrix(0.008677625575057506,0,0,0.008677625575057506,38.068743397777276,0)" xlink:href="#aT"/><use transform="matrix(0.008677625575057506,0,0,0.008677625575057506,43.882752533065805,0)" xlink:href="#bh"/><use transform="matrix(0.008677625575057506,0,0,0.008677625575057506,51.987654820169524,0)" xlink:href="#aT"/><use transform="matrix(0.008677625575057506,0,0,0.008677625575057506,58.14876897846034,0)" xlink:href="#bl"/><use transform="matrix(0.008677625575057506,0,0,0.008677625575057506,68.13671601535154,0)" xlink:href="#bk"/><use transform="matrix(0.008677625575057506,0,0,0.008677625575057506,79.01845848647365,0)" xlink:href="#aV"/><use transform="matrix(0.008677625575057506,0,0,0.008677625575057506,89.37954342309231,0)" xlink:href="#bm"/><use transform="matrix(0.008677625575057506,0,0,0.008677625575057506,101.13772607729524,0)" xlink:href="#aU"/><use transform="matrix(0.008677625575057506,0,0,0.008677625575057506,111.11699548861137,0)" xlink:href="#ba"/><use transform="matrix(0.008677625575057506,0,0,0.008677625575057506,121.62560006000601,0)" xlink:href="#aT"/><use transform="matrix(0.008677625575057506,0,0,0.008677625575057506,127.43960919529454,0)" xlink:href="#bb"/><use transform="matrix(0.008677625575057506,0,0,0.008677625575057506,137.94821376668918,0)" xlink:href="#aX"/><use transform="matrix(0.008677625575057506,0,0,0.008677625575057506,148.6043379728598,0)" xlink:href="#bc"/><use transform="matrix(0.008677625575057506,0,0,0.008677625575057506,155.57247130963097,0)" xlink:href="#aS"/><use transform="matrix(0.008677625575057506,0,0,0.008677625575057506,159.87657359485948,0)" xlink:href="#bd"/><use transform="matrix(0.008677625575057506,0,0,0.008677625575057506,169.69096812024955,0)" xlink:href="#aU"/><use transform="matrix(0.008677625575057506,0,0,0.008677625575057506,179.67023753156565,0)" xlink:href="#aT"/><use transform="matrix(0.008677625575057506,0,0,0.008677625575057506,185.48424666685418,0)" xlink:href="#aS"/><use transform="matrix(0.008677625575057506,0,0,0.008677625575057506,189.78834895208269,0)" xlink:href="#aX"/><use transform="matrix(0.008677625575057506,0,0,0.008677625575057506,200.44447315825332,0)" xlink:href="#aR"/><use transform="matrix(0.008677625575057506,0,0,0.008677625575057506,210.9444001040729,0)" xlink:href="#bh"/><use transform="matrix(0.008677625575057506,0,0,0.008677625575057506,219.0493023911766,0)" xlink:href="#bg"/><use transform="matrix(0.008677625575057506,0,0,0.008677625575057506,229.2021243139939,0)" xlink:href="#aX"/><use transform="matrix(0.008677625575057506,0,0,0.008677625575057506,239.85824852016452,0)" xlink:href="#bf"/><use transform="matrix(0.008677625575057506,0,0,0.008677625575057506,250.73999099128665,0)" xlink:href="#aV"/><use transform="matrix(0.008677625575057506,0,0,0.008677625575057506,261.1010759279053,0)" xlink:href="#bi"/></g><g id="M"><use transform="matrix(0.008677625575057506,0,0,0.008677625575057506,0,0)" xlink:href="#bg"/><use transform="matrix(0.008677625575057506,0,0,0.008677625575057506,10.152821922817283,0)" xlink:href="#aX"/><use transform="matrix(0.008677625575057506,0,0,0.008677625575057506,20.808946128987902,0)" xlink:href="#bf"/><use transform="matrix(0.008677625575057506,0,0,0.008677625575057506,31.690688600110015,0)" xlink:href="#aV"/><use transform="matrix(0.008677625575057506,0,0,0.008677625575057506,42.051773536728675,0)" xlink:href="#bi"/></g><g id="N"><use transform="matrix(0.008677625575057506,0,0,0.008677625575057506,0,0)" xlink:href="#bc"/><use transform="matrix(0.008677625575057506,0,0,0.008677625575057506,6.395410048817382,0)" xlink:href="#aV"/><use transform="matrix(0.008677625575057506,0,0,0.008677625575057506,16.756494985436046,0)" xlink:href="#bf"/><use transform="matrix(0.008677625575057506,0,0,0.008677625575057506,27.63823745655816,0)" xlink:href="#aS"/><use transform="matrix(0.008677625575057506,0,0,0.008677625575057506,31.942339741786682,0)" xlink:href="#bc"/><use transform="matrix(0.008677625575057506,0,0,0.008677625575057506,38.337749790604065,0)" xlink:href="#aV"/><use transform="matrix(0.008677625575057506,0,0,0.008677625575057506,48.69883472722273,0)" xlink:href="#bg"/><use transform="matrix(0.008677625575057506,0,0,0.008677625575057506,58.85165665004001,0)" xlink:href="#aT"/><use transform="matrix(0.008677625575057506,0,0,0.008677625575057506,64.66566578532854,0)" xlink:href="#bh"/><use transform="matrix(0.008677625575057506,0,0,0.008677625575057506,72.77056807243225,0)" xlink:href="#ba"/><use transform="matrix(0.008677625575057506,0,0,0.008677625575057506,83.27917264382688,0)" xlink:href="#bc"/><use transform="matrix(0.008677625575057506,0,0,0.008677625575057506,90.24730598059807,0)" xlink:href="#aS"/></g><path d="M593-100v-404H195v-159h398v-403h169v403h398v159H762v404H593" id="bA"/><g id="O"><use transform="matrix(0.008677625575057506,0,0,0.008677625575057506,0,0)" xlink:href="#bv"/><use transform="matrix(0.008677625575057506,0,0,0.008677625575057506,6.482186304567957,0)" xlink:href="#bA"/></g><path d="M481 0L54-1118h197c107 314 236 620 325 951 87-331 217-637 324-951h197L670 0H481" id="bB"/><g id="P"><use transform="matrix(0.008677625575057506,0,0,0.008677625575057506,0,0)" xlink:href="#bg"/><use transform="matrix(0.008677625575057506,0,0,0.008677625575057506,10.152821922817283,0)" xlink:href="#aX"/><use transform="matrix(0.008677625575057506,0,0,0.008677625575057506,20.808946128987902,0)" xlink:href="#bf"/><use transform="matrix(0.008677625575057506,0,0,0.008677625575057506,31.690688600110015,0)" xlink:href="#aV"/><use transform="matrix(0.008677625575057506,0,0,0.008677625575057506,42.051773536728675,0)" xlink:href="#bh"/><use transform="matrix(0.008677625575057506,0,0,0.008677625575057506,48.750900480673074,0)" xlink:href="#bB"/><use transform="matrix(0.008677625575057506,0,0,0.008677625575057506,58.39174249456197,0)" xlink:href="#aV"/><use transform="matrix(0.008677625575057506,0,0,0.008677625575057506,68.75282743118063,0)" xlink:href="#bc"/><use transform="matrix(0.008677625575057506,0,0,0.008677625575057506,75.7209607679518,0)" xlink:href="#aS"/><use transform="matrix(0.008677625575057506,0,0,0.008677625575057506,80.02506305318035,0)" xlink:href="#bt"/><use transform="matrix(0.008677625575057506,0,0,0.008677625575057506,86.60270323907392,0)" xlink:href="#aS"/><use transform="matrix(0.008677625575057506,0,0,0.008677625575057506,90.90680552430244,0)" xlink:href="#aV"/><use transform="matrix(0.008677625575057506,0,0,0.008677625575057506,101.26789046092111,0)" xlink:href="#bc"/></g><g id="Q"><use transform="matrix(0.008677625575057506,0,0,0.008677625575057506,0,0)" xlink:href="#bw"/><use transform="matrix(0.008677625575057506,0,0,0.008677625575057506,11.350334252175218,0)" xlink:href="#bx"/><use transform="matrix(0.008677625575057506,0,0,0.008677625575057506,22.69199087877538,0)" xlink:href="#by"/><use transform="matrix(0.008677625575057506,0,0,0.008677625575057506,35.67371873906141,0)" xlink:href="#br"/><use transform="matrix(0.008677625575057506,0,0,0.008677625575057506,46.3558758219572,0)" xlink:href="#bz"/></g><g id="R"><use transform="matrix(0.008677625575057506,0,0,0.008677625575057506,0,0)" xlink:href="#be"/><use transform="matrix(0.008677625575057506,0,0,0.008677625575057506,11.176781740674068,0)" xlink:href="#aV"/><use transform="matrix(0.008677625575057506,0,0,0.008677625575057506,21.537866677292733,0)" xlink:href="#aT"/><use transform="matrix(0.008677625575057506,0,0,0.008677625575057506,27.351875812581262,0)" xlink:href="#ba"/><use transform="matrix(0.008677625575057506,0,0,0.008677625575057506,37.8604803839759,0)" xlink:href="#bc"/><use transform="matrix(0.008677625575057506,0,0,0.008677625575057506,44.828613720747086,0)" xlink:href="#aR"/></g><g id="S"><use transform="matrix(0.008677625575057506,0,0,0.008677625575057506,0,0)" xlink:href="#aU"/><use transform="matrix(0.008677625575057506,0,0,0.008677625575057506,9.979269411316132,0)" xlink:href="#bg"/><use transform="matrix(0.008677625575057506,0,0,0.008677625575057506,20.132091334133413,0)" xlink:href="#bg"/><use transform="matrix(0.008677625575057506,0,0,0.008677625575057506,30.284913256950695,0)" xlink:href="#aV"/><use transform="matrix(0.008677625575057506,0,0,0.008677625575057506,40.645998193569355,0)" xlink:href="#bj"/><use transform="matrix(0.008677625575057506,0,0,0.008677625575057506,50.02651144020652,0)" xlink:href="#bj"/><use transform="matrix(0.008677625575057506,0,0,0.008677625575057506,59.407024686843684,0)" xlink:href="#bh"/><use transform="matrix(0.008677625575057506,0,0,0.008677625575057506,67.5119269739474,0)" xlink:href="#aT"/><use transform="matrix(0.008677625575057506,0,0,0.008677625575057506,73.15238359773477,0)" xlink:href="#aX"/><use transform="matrix(0.008677625575057506,0,0,0.008677625575057506,83.80850780390539,0)" xlink:href="#bu"/><use transform="matrix(0.008677625575057506,0,0,0.008677625575057506,93.16298817381737,0)" xlink:href="#aV"/><use transform="matrix(0.008677625575057506,0,0,0.008677625575057506,103.52407311043603,0)" xlink:href="#aR"/></g><g id="T"><use transform="matrix(0.008677625575057506,0,0,0.008677625575057506,0,0)" xlink:href="#bc"/><use transform="matrix(0.008677625575057506,0,0,0.008677625575057506,6.395410048817382,0)" xlink:href="#aV"/><use transform="matrix(0.008677625575057506,0,0,0.008677625575057506,16.756494985436046,0)" xlink:href="#bt"/><use transform="matrix(0.008677625575057506,0,0,0.008677625575057506,23.334135171329635,0)" xlink:href="#bc"/><use transform="matrix(0.008677625575057506,0,0,0.008677625575057506,29.729545220147017,0)" xlink:href="#aV"/><use transform="matrix(0.008677625575057506,0,0,0.008677625575057506,40.090630156765684,0)" xlink:href="#bj"/><use transform="matrix(0.008677625575057506,0,0,0.008677625575057506,49.47114340340285,0)" xlink:href="#bb"/><use transform="matrix(0.008677625575057506,0,0,0.008677625575057506,59.97974797479749,0)" xlink:href="#bh"/><use transform="matrix(0.008677625575057506,0,0,0.008677625575057506,68.0846502619012,0)" xlink:href="#aT"/><use transform="matrix(0.008677625575057506,0,0,0.008677625575057506,73.72510688568858,0)" xlink:href="#aX"/><use transform="matrix(0.008677625575057506,0,0,0.008677625575057506,84.38123109185919,0)" xlink:href="#bu"/><use transform="matrix(0.008677625575057506,0,0,0.008677625575057506,93.73571146177117,0)" xlink:href="#aV"/><use transform="matrix(0.008677625575057506,0,0,0.008677625575057506,104.09679639838984,0)" xlink:href="#aR"/><use transform="matrix(0.008677625575057506,0,0,0.008677625575057506,114.59672334420942,0)" xlink:href="#bi"/></g><g id="U"><use transform="matrix(0.008677625575057506,0,0,0.008677625575057506,0,0)" xlink:href="#aS"/><use transform="matrix(0.008677625575057506,0,0,0.008677625575057506,4.304102285228523,0)" xlink:href="#bf"/><use transform="matrix(0.008677625575057506,0,0,0.008677625575057506,15.185844756350637,0)" xlink:href="#bh"/><use transform="matrix(0.008677625575057506,0,0,0.008677625575057506,23.290747043454346,0)" xlink:href="#aT"/><use transform="matrix(0.008677625575057506,0,0,0.008677625575057506,28.931203667241725,0)" xlink:href="#aX"/><use transform="matrix(0.008677625575057506,0,0,0.008677625575057506,39.58732787341234,0)" xlink:href="#bu"/><use transform="matrix(0.008677625575057506,0,0,0.008677625575057506,48.94180824332434,0)" xlink:href="#aV"/><use transform="matrix(0.008677625575057506,0,0,0.008677625575057506,59.302893179943,0)" xlink:href="#aR"/></g><g id="V"><use transform="matrix(0.008677625575057506,0,0,0.008677625575057506,0,0)" xlink:href="#aS"/><use transform="matrix(0.008677625575057506,0,0,0.008677625575057506,4.304102285228523,0)" xlink:href="#bt"/></g><path d="M784 20c-382 0-662-292-662-764 0-473 280-766 662-766s660 293 660 766c0 472-278 764-660 764zm0-176c266 0 475-207 475-588 0-383-209-590-475-590-268 0-477 208-477 590 0 380 209 588 477 588" id="bC"/><path d="M645 0H180v-1490h484c435 0 692 280 692 742 0 466-257 748-711 748zM370-168h263c363 0 539-218 539-580 0-358-176-574-521-574H370v1154" id="bD"/><g id="W"><use transform="matrix(0.008677625575057506,0,0,0.008677625575057506,0,0)" xlink:href="#bC"/><use transform="matrix(0.008677625575057506,0,0,0.008677625575057506,13.589161650540055,0)" xlink:href="#aQ"/><use transform="matrix(0.008677625575057506,0,0,0.008677625575057506,18.361855716821683,0)" xlink:href="#bD"/><use transform="matrix(0.008677625575057506,0,0,0.008677625575057506,31.18738631675668,0)" xlink:href="#by"/><use transform="matrix(0.008677625575057506,0,0,0.008677625575057506,44.16911417704271,0)" xlink:href="#bz"/><use transform="matrix(0.008677625575057506,0,0,0.008677625575057506,50.65130048161066,0)" xlink:href="#bi"/></g><g id="X"><use transform="matrix(0.008677625575057506,0,0,0.008677625575057506,0,0)" xlink:href="#aT"/><use transform="matrix(0.008677625575057506,0,0,0.008677625575057506,5.640456623787379,0)" xlink:href="#aX"/><use transform="matrix(0.008677625575057506,0,0,0.008677625575057506,16.296580829957996,0)" xlink:href="#bu"/><use transform="matrix(0.008677625575057506,0,0,0.008677625575057506,25.651061199869986,0)" xlink:href="#aV"/><use transform="matrix(0.008677625575057506,0,0,0.008677625575057506,36.01214613648865,0)" xlink:href="#aR"/><use transform="matrix(0.008677625575057506,0,0,0.008677625575057506,46.512073082308234,0)" xlink:href="#bh"/><use transform="matrix(0.008677625575057506,0,0,0.008677625575057506,54.616975369411946,0)" xlink:href="#aT"/><use transform="matrix(0.008677625575057506,0,0,0.008677625575057506,60.778089527702775,0)" xlink:href="#bl"/><use transform="matrix(0.008677625575057506,0,0,0.008677625575057506,70.76603656459396,0)" xlink:href="#bk"/><use transform="matrix(0.008677625575057506,0,0,0.008677625575057506,81.64777903571608,0)" xlink:href="#aV"/><use transform="matrix(0.008677625575057506,0,0,0.008677625575057506,92.00886397233474,0)" xlink:href="#bi"/></g><g id="Y"><use transform="matrix(0.008677625575057506,0,0,0.008677625575057506,0,0)" xlink:href="#aV"/><use transform="matrix(0.008677625575057506,0,0,0.008677625575057506,9.961914160166017,0)" xlink:href="#bs"/><use transform="matrix(0.008677625575057506,0,0,0.008677625575057506,19.66349955308031,0)" xlink:href="#bk"/><use transform="matrix(0.008677625575057506,0,0,0.008677625575057506,30.545242024202423,0)" xlink:href="#aS"/><use transform="matrix(0.008677625575057506,0,0,0.008677625575057506,34.84934430943095,0)" xlink:href="#bc"/><use transform="matrix(0.008677625575057506,0,0,0.008677625575057506,41.24475435824833,0)" xlink:href="#aV"/><use transform="matrix(0.008677625575057506,0,0,0.008677625575057506,51.605839294866996,0)" xlink:href="#bj"/><use transform="matrix(0.008677625575057506,0,0,0.008677625575057506,60.98635254150416,0)" xlink:href="#bh"/><use transform="matrix(0.008677625575057506,0,0,0.008677625575057506,69.69001099328683,0)" xlink:href="#aS"/><use transform="matrix(0.008677625575057506,0,0,0.008677625575057506,73.99411327851536,0)" xlink:href="#aR"/></g><g id="Z"><use transform="matrix(0.008677625575057506,0,0,0.008677625575057506,0,0)" xlink:href="#by"/><use transform="matrix(0.008677625575057506,0,0,0.008677625575057506,12.98172786028603,0)" xlink:href="#aU"/><use transform="matrix(0.008677625575057506,0,0,0.008677625575057506,22.96099727160216,0)" xlink:href="#aW"/><use transform="matrix(0.008677625575057506,0,0,0.008677625575057506,27.265099556830684,0)" xlink:href="#aW"/></g><g id="aa"><use transform="matrix(0.008677625575057506,0,0,0.008677625575057506,0,0)" xlink:href="#bp"/><use transform="matrix(0.008677625575057506,0,0,0.008677625575057506,14.54370046379638,0)" xlink:href="#aS"/><use transform="matrix(0.008677625575057506,0,0,0.008677625575057506,18.847802749024904,0)" xlink:href="#aT"/><use transform="matrix(0.008677625575057506,0,0,0.008677625575057506,24.661811884313433,0)" xlink:href="#bb"/></g><path d="M295 13c-75 0-135-60-135-135s60-135 135-135 135 60 135 135S370 13 295 13zm0-809c-75 0-135-60-135-135s60-135 135-135 135 60 135 135-60 135-135 135" id="bE"/><g id="ab"><use transform="matrix(0.008677625575057506,0,0,0.008677625575057506,0,0)" xlink:href="#bn"/><use transform="matrix(0.008677625575057506,0,0,0.008677625575057506,12.261484937556256,0)" xlink:href="#ba"/><use transform="matrix(0.008677625575057506,0,0,0.008677625575057506,22.770089508950896,0)" xlink:href="#aT"/><use transform="matrix(0.008677625575057506,0,0,0.008677625575057506,28.584098644239425,0)" xlink:href="#bb"/><use transform="matrix(0.008677625575057506,0,0,0.008677625575057506,39.09270321563407,0)" xlink:href="#aX"/><use transform="matrix(0.008677625575057506,0,0,0.008677625575057506,49.748827421804684,0)" xlink:href="#bc"/><use transform="matrix(0.008677625575057506,0,0,0.008677625575057506,56.71696075857586,0)" xlink:href="#aS"/><use transform="matrix(0.008677625575057506,0,0,0.008677625575057506,61.021063043804396,0)" xlink:href="#bd"/><use transform="matrix(0.008677625575057506,0,0,0.008677625575057506,70.83545756919443,0)" xlink:href="#aU"/><use transform="matrix(0.008677625575057506,0,0,0.008677625575057506,80.81472698051056,0)" xlink:href="#aT"/><use transform="matrix(0.008677625575057506,0,0,0.008677625575057506,86.62873611579909,0)" xlink:href="#aS"/><use transform="matrix(0.008677625575057506,0,0,0.008677625575057506,90.93283840102761,0)" xlink:href="#aX"/><use transform="matrix(0.008677625575057506,0,0,0.008677625575057506,101.58896260719823,0)" xlink:href="#aR"/><use transform="matrix(0.008677625575057506,0,0,0.008677625575057506,112.08888955301781,0)" xlink:href="#bE"/></g><path d="M180 0v-1490h528c311 0 458 177 458 395 0 191-114 278-244 313v14c139 9 302 137 302 371 0 225-148 397-499 397H180zm190-168h350c232 0 321-102 321-231 0-149-120-277-311-277H370v508zm0-668h328c160 0 286-101 286-255 0-129-87-231-280-231H370v486" id="bF"/><g id="ac"><use transform="matrix(0.008677625575057506,0,0,0.008677625575057506,0,0)" xlink:href="#bF"/><use transform="matrix(0.008677625575057506,0,0,0.008677625575057506,11.628018270577059,0)" xlink:href="#aV"/><use transform="matrix(0.008677625575057506,0,0,0.008677625575057506,22.162655718696872,0)" xlink:href="#aU"/><use transform="matrix(0.008677625575057506,0,0,0.008677625575057506,32.14192513001301,0)" xlink:href="#bc"/><use transform="matrix(0.008677625575057506,0,0,0.008677625575057506,38.53733517883039,0)" xlink:href="#aV"/><use transform="matrix(0.008677625575057506,0,0,0.008677625575057506,48.898420115449056,0)" xlink:href="#bc"/></g><g id="ad"><use transform="matrix(0.008677625575057506,0,0,0.008677625575057506,0,0)" xlink:href="#aU"/><use transform="matrix(0.008677625575057506,0,0,0.008677625575057506,9.979269411316132,0)" xlink:href="#bg"/><use transform="matrix(0.008677625575057506,0,0,0.008677625575057506,20.132091334133413,0)" xlink:href="#bg"/><use transform="matrix(0.008677625575057506,0,0,0.008677625575057506,30.284913256950695,0)" xlink:href="#aV"/><use transform="matrix(0.008677625575057506,0,0,0.008677625575057506,40.645998193569355,0)" xlink:href="#bj"/><use transform="matrix(0.008677625575057506,0,0,0.008677625575057506,50.02651144020652,0)" xlink:href="#bj"/><use transform="matrix(0.008677625575057506,0,0,0.008677625575057506,59.407024686843684,0)" xlink:href="#bh"/><use transform="matrix(0.008677625575057506,0,0,0.008677625575057506,67.5119269739474,0)" xlink:href="#aT"/><use transform="matrix(0.008677625575057506,0,0,0.008677625575057506,73.15238359773477,0)" xlink:href="#aX"/><use transform="matrix(0.008677625575057506,0,0,0.008677625575057506,83.80850780390539,0)" xlink:href="#bu"/><use transform="matrix(0.008677625575057506,0,0,0.008677625575057506,93.16298817381737,0)" xlink:href="#aV"/><use transform="matrix(0.008677625575057506,0,0,0.008677625575057506,103.52407311043603,0)" xlink:href="#aR"/></g><g id="ae"><use transform="matrix(0.008677625575057506,0,0,0.008677625575057506,0,0)" xlink:href="#aT"/><use transform="matrix(0.008677625575057506,0,0,0.008677625575057506,5.640456623787379,0)" xlink:href="#aX"/><use transform="matrix(0.008677625575057506,0,0,0.008677625575057506,16.296580829957996,0)" xlink:href="#bu"/><use transform="matrix(0.008677625575057506,0,0,0.008677625575057506,25.651061199869986,0)" xlink:href="#aV"/><use transform="matrix(0.008677625575057506,0,0,0.008677625575057506,36.01214613648865,0)" xlink:href="#aR"/></g><g id="af"><use transform="matrix(0.008677625575057506,0,0,0.008677625575057506,0,0)" xlink:href="#bc"/><use transform="matrix(0.008677625575057506,0,0,0.008677625575057506,6.395410048817382,0)" xlink:href="#aV"/><use transform="matrix(0.008677625575057506,0,0,0.008677625575057506,16.756494985436046,0)" xlink:href="#aT"/><use transform="matrix(0.008677625575057506,0,0,0.008677625575057506,22.570504120724575,0)" xlink:href="#ba"/><use transform="matrix(0.008677625575057506,0,0,0.008677625575057506,33.07910869211921,0)" xlink:href="#bc"/><use transform="matrix(0.008677625575057506,0,0,0.008677625575057506,40.047242028890395,0)" xlink:href="#aR"/></g><g id="ag"><use transform="matrix(0.008677625575057506,0,0,0.008677625575057506,0,0)" xlink:href="#bk"/><use transform="matrix(0.008677625575057506,0,0,0.008677625575057506,10.881742471122113,0)" xlink:href="#bc"/><use transform="matrix(0.008677625575057506,0,0,0.008677625575057506,17.277152519939495,0)" xlink:href="#aX"/><use transform="matrix(0.008677625575057506,0,0,0.008677625575057506,27.933276726110115,0)" xlink:href="#aT"/><use transform="matrix(0.008677625575057506,0,0,0.008677625575057506,33.573733349897495,0)" xlink:href="#aV"/><use transform="matrix(0.008677625575057506,0,0,0.008677625575057506,43.93481828651616,0)" xlink:href="#bg"/><use transform="matrix(0.008677625575057506,0,0,0.008677625575057506,54.08764020933344,0)" xlink:href="#aT"/><use transform="matrix(0.008677625575057506,0,0,0.008677625575057506,59.72809683312082,0)" xlink:href="#aV"/><use transform="matrix(0.008677625575057506,0,0,0.008677625575057506,70.08918176973948,0)" xlink:href="#bf"/></g><g id="ah"><use transform="matrix(0.008677625575057506,0,0,0.008677625575057506,0,0)" xlink:href="#bc"/><use transform="matrix(0.008677625575057506,0,0,0.008677625575057506,6.395410048817382,0)" xlink:href="#aV"/><use transform="matrix(0.008677625575057506,0,0,0.008677625575057506,16.756494985436046,0)" xlink:href="#bj"/><use transform="matrix(0.008677625575057506,0,0,0.008677625575057506,26.13700823207321,0)" xlink:href="#aX"/><use transform="matrix(0.008677625575057506,0,0,0.008677625575057506,36.79313243824383,0)" xlink:href="#ba"/><use transform="matrix(0.008677625575057506,0,0,0.008677625575057506,47.30173700963847,0)" xlink:href="#bc"/><use transform="matrix(0.008677625575057506,0,0,0.008677625575057506,53.697147058455855,0)" xlink:href="#bg"/><use transform="matrix(0.008677625575057506,0,0,0.008677625575057506,63.84996898127314,0)" xlink:href="#aV"/></g><path fill="#f2f3f5" d="M180 0v-1490h510c348 0 508 209 508 474 0 266-160 477-507 477H370V0H180zm190-706h312c236 0 327-133 327-310 0-176-91-307-329-307H370v617" id="bG"/><path fill="#f2f3f5" d="M180 0v-1490h190c0 262 1 526-3 784 217-279 467-523 702-784h249L716-845 1319 0h-225L585-716 370-489V0H180" id="bH"/><path fill="#f2f3f5" d="M783 20c-382 0-661-292-661-764 0-473 279-766 661-766 302 0 548 182 601 489h-190c-42-204-217-313-411-313-268 0-476 208-476 590 0 381 209 588 476 588 195 0 369-110 411-313h190c-52 303-296 489-601 489" id="bI"/><path fill="#f2f3f5" d="M180 0v-1490h908v168H370v486h669v168H370v500h727V0H180" id="bJ"/><path fill="#f2f3f5" d="M295 13c-75 0-135-60-135-135s60-135 135-135 135 60 135 135S370 13 295 13zm0-809c-75 0-135-60-135-135s60-135 135-135 135 60 135 135-60 135-135 135" id="bK"/><g id="ai"><use transform="matrix(0.010850694444444444,0,0,0.010850694444444444,0,0)" xlink:href="#bG"/><use transform="matrix(0.010850694444444444,0,0,0.010850694444444444,14.192708333333332,0)" xlink:href="#bH"/><use transform="matrix(0.010850694444444444,0,0,0.010850694444444444,28.37456597222222,0)" xlink:href="#bI"/><use transform="matrix(0.010850694444444444,0,0,0.010850694444444444,44.60720486111111,0)" xlink:href="#bJ"/><use transform="matrix(0.010850694444444444,0,0,0.010850694444444444,57.96440972222223,0)" xlink:href="#bK"/></g><path fill="#f2f3f5" d="M613 24c-304 0-509-231-509-576 0-350 205-580 509-580 216 0 392 114 453 309l-173 49c-33-115-133-197-280-197-223 0-326 196-326 419 0 220 103 415 326 415 150 0 252-85 285-206l172 49C1010-95 832 24 613 24" id="bL"/><path fill="#f2f3f5" d="M613 24c-304 0-509-231-509-576 0-350 205-580 509-580 305 0 511 230 511 580 0 345-206 576-511 576zm0-161c226 0 329-195 329-415 0-222-103-419-329-419-223 0-326 196-326 419 0 220 103 415 326 415" id="bM"/><path fill="#f2f3f5" d="M577 24c-279 0-473-224-473-580 0-354 195-576 474-576 218 0 287 134 324 193h14v-551h180V0H922v-173h-20C865-111 790 24 577 24zm27-161c203 0 314-172 314-421 0-247-108-413-314-413-212 0-317 181-317 413 0 235 108 421 317 421" id="bN"/><path fill="#f2f3f5" d="M628 24c-324 0-524-230-524-574 0-343 198-582 503-582 237 0 487 146 487 559v75H286c9 234 145 362 343 362 132 0 231-58 273-172l174 48C1024-91 857 24 628 24zM287-650h624c-17-190-120-322-304-322-192 0-309 151-320 322" id="bO"/><path fill="#f2f3f5" d="M934 0v166H0V0h934" id="bP"/><path fill="#f2f3f5" d="M338-670V0H158v-1490h180v566c73-149 190-208 336-208 226 0 379 139 379 422V0H872v-695c0-172-96-275-252-275-161 0-282 109-282 300" id="bQ"/><path fill="#f2f3f5" d="M471 26C259 26 90-98 90-318c0-256 228-303 435-329 202-27 287-16 287-108 0-139-79-219-234-219-161 0-248 86-283 164l-173-57c86-203 278-265 451-265 150 0 419 46 419 395V0H815v-152h-12C765-73 660 26 471 26zm31-159c199 0 310-134 310-271v-155c-30 35-226 55-295 64-131 17-246 59-246 186 0 116 97 176 231 176" id="bR"/><path fill="#f2f3f5" d="M338-1490V0H158v-1490h180" id="bS"/><path fill="#f2f3f5" d="M338-670V0H158v-1118h173l1 207c72-158 192-221 342-221 226 0 378 139 378 422V0H872v-695c0-172-96-275-252-275-161 0-282 109-282 300" id="bT"/><path fill="#f2f3f5" d="M611 442c-248 0-391-105-460-228l146-94c47 65 117 165 314 165 178 0 307-82 307-266v-224h-17C863-141 792-18 576-18c-268 0-472-195-472-546 0-346 197-568 476-568 216 0 288 133 326 193h17v-179h175V29c0 289-215 413-487 413zm-5-620c203 0 314-146 314-390 0-237-108-403-314-403-213 0-319 180-319 403 0 230 109 390 319 390" id="bU"/><path fill="#f2f3f5" d="M692-1560L212 224H46l480-1784h166" id="bV"/><path fill="#f2f3f5" d="M481 0L54-1118h197c107 314 236 620 325 951 87-331 217-637 324-951h197L670 0H481" id="bW"/><path fill="#f2f3f5" d="M158 0v-1118h174v172h12c41-113 157-188 290-188 26 0 70 2 91 3v181c-11-2-60-10-108-10-161 0-279 109-279 260V0H158" id="bX"/><path fill="#f2f3f5" d="M158 0v-1118h180V0H158zm91-1301c-68 0-125-53-125-119s57-119 125-119c69 0 126 53 126 119s-57 119-126 119" id="bY"/><path fill="#f2f3f5" d="M678-1118v154H420V0H240v-964H20v-154h220v-149c0-194 155-293 318-293 85 0 141 18 168 30l-50 154c-19-6-47-17-97-17-111 0-159 58-159 166v109h258" id="bZ"/><g id="aj"><use transform="matrix(0.010850694444444444,0,0,0.010850694444444444,0,0)" xlink:href="#bL"/><use transform="matrix(0.010850694444444444,0,0,0.010850694444444444,12.6953125,0)" xlink:href="#bM"/><use transform="matrix(0.010850694444444444,0,0,0.010850694444444444,26.01996527777778,0)" xlink:href="#bN"/><use transform="matrix(0.010850694444444444,0,0,0.010850694444444444,39.626736111111114,0)" xlink:href="#bO"/><use transform="matrix(0.010850694444444444,0,0,0.010850694444444444,52.58246527777778,0)" xlink:href="#bP"/><use transform="matrix(0.010850694444444444,0,0,0.010850694444444444,62.717013888888886,0)" xlink:href="#bL"/><use transform="matrix(0.010850694444444444,0,0,0.010850694444444444,75.41232638888889,0)" xlink:href="#bQ"/><use transform="matrix(0.010850694444444444,0,0,0.010850694444444444,88.55251736111111,0)" xlink:href="#bR"/><use transform="matrix(0.010850694444444444,0,0,0.010850694444444444,101.03081597222224,0)" xlink:href="#bS"/><use transform="matrix(0.010850694444444444,0,0,0.010850694444444444,106.41276041666666,0)" xlink:href="#bS"/><use transform="matrix(0.010850694444444444,0,0,0.010850694444444444,111.7947048611111,0)" xlink:href="#bO"/><use transform="matrix(0.010850694444444444,0,0,0.010850694444444444,124.7504340277778,0)" xlink:href="#bT"/><use transform="matrix(0.010850694444444444,0,0,0.010850694444444444,137.87977430555557,0)" xlink:href="#bU"/><use transform="matrix(0.010850694444444444,0,0,0.010850694444444444,151.5082465277778,0)" xlink:href="#bO"/><use transform="matrix(0.010850694444444444,0,0,0.010850694444444444,164.46397569444446,0)" xlink:href="#bV"/><use transform="matrix(0.010850694444444444,0,0,0.010850694444444444,172.47178819444446,0)" xlink:href="#bL"/><use transform="matrix(0.010850694444444444,0,0,0.010850694444444444,185.16710069444443,0)" xlink:href="#bM"/><use transform="matrix(0.010850694444444444,0,0,0.010850694444444444,198.49175347222223,0)" xlink:href="#bN"/><use transform="matrix(0.010850694444444444,0,0,0.010850694444444444,212.0985243055556,0)" xlink:href="#bO"/><use transform="matrix(0.010850694444444444,0,0,0.010850694444444444,225.0542534722222,0)" xlink:href="#bP"/><use transform="matrix(0.010850694444444444,0,0,0.010850694444444444,233.43098958333331,0)" xlink:href="#bW"/><use transform="matrix(0.010850694444444444,0,0,0.010850694444444444,245.48611111111111,0)" xlink:href="#bO"/><use transform="matrix(0.010850694444444444,0,0,0.010850694444444444,258.44184027777777,0)" xlink:href="#bX"/><use transform="matrix(0.010850694444444444,0,0,0.010850694444444444,267.1549479166667,0)" xlink:href="#bY"/><use transform="matrix(0.010850694444444444,0,0,0.010850694444444444,272.53689236111114,0)" xlink:href="#bZ"/><use transform="matrix(0.010850694444444444,0,0,0.010850694444444444,280.76171875000006,0)" xlink:href="#bY"/><use transform="matrix(0.010850694444444444,0,0,0.010850694444444444,286.1436631944445,0)" xlink:href="#bO"/><use transform="matrix(0.010850694444444444,0,0,0.010850694444444444,299.0993923611112,0)" xlink:href="#bX"/></g><path fill="#f2f3f5" d="M657 26c-323 0-524-166-541-416h195c15 169 171 246 346 246 202 0 356-106 356-265 5-203-294-238-475-293-239-73-380-191-380-389 0-252 224-419 512-419 294 0 499 171 508 396H992c-17-145-151-228-328-228-193 0-321 102-321 242 0 156 175 211 284 241l149 41c160 44 422 134 422 412 0 244-197 432-541 432" id="ca"/><path fill="#f2f3f5" d="M537 14c-226 0-379-139-379-422v-710h180v695c0 172 97 275 253 275 160 0 281-109 281-300v-670h181V0H879v-209C806-46 684 14 537 14" id="cb"/><path fill="#f2f3f5" d="M598-1118v154H368v674c0 100 37 144 132 144 23 0 62-6 92-12L629-6c-37 13-88 20-134 20-193 0-307-107-307-290v-688H20v-154h168v-266h180v266h230" id="cc"/><path fill="#f2f3f5" d="M140 405l46-156c120 36 205 19 263-150l32-93L54-1118h197c107 313 237 620 324 950 87-331 219-637 326-950h196L606 167c-68 178-176 259-334 259-64 0-113-12-132-21" id="cd"/><g id="ak"><use transform="matrix(0.010850694444444444,0,0,0.010850694444444444,0,0)" xlink:href="#ca"/><use transform="matrix(0.010850694444444444,0,0,0.010850694444444444,14.2578125,0)" xlink:href="#bO"/><use transform="matrix(0.010850694444444444,0,0,0.010850694444444444,27.213541666666664,0)" xlink:href="#bL"/><use transform="matrix(0.010850694444444444,0,0,0.010850694444444444,39.908854166666664,0)" xlink:href="#cb"/><use transform="matrix(0.010850694444444444,0,0,0.010850694444444444,53.049045138888886,0)" xlink:href="#bX"/><use transform="matrix(0.010850694444444444,0,0,0.010850694444444444,61.76215277777778,0)" xlink:href="#bY"/><use transform="matrix(0.010850694444444444,0,0,0.010850694444444444,67.14409722222221,0)" xlink:href="#cc"/><use transform="matrix(0.010850694444444444,0,0,0.010850694444444444,74.84809027777776,0)" xlink:href="#cd"/><use transform="matrix(0.010850694444444444,0,0,0.010850694444444444,87.33723958333331,0)" xlink:href="#bK"/></g><path fill="#f2f3f5" d="M538 24C308 24 148-78 108-271l171-41c32 123 123 178 257 178 156 0 256-77 256-169 0-77-54-128-164-154l-186-44c-203-48-300-148-300-305 0-192 176-326 414-326 230 0 351 112 402 269l-163 42c-31-80-94-158-238-158-133 0-233 69-233 162 0 83 57 129 188 160l169 40c203 48 298 149 298 302 0 196-179 339-441 339" id="ce"/><path fill="#f2f3f5" d="M128 359l88-567h206L266 359H128" id="cf"/><g id="al"><use transform="matrix(0.010850694444444444,0,0,0.010850694444444444,0,0)" xlink:href="#ce"/><use transform="matrix(0.010850694444444444,0,0,0.010850694444444444,11.729600694444445,0)" xlink:href="#cc"/><use transform="matrix(0.010850694444444444,0,0,0.010850694444444444,19.108072916666668,0)" xlink:href="#bR"/><use transform="matrix(0.010850694444444444,0,0,0.010850694444444444,31.586371527777775,0)" xlink:href="#cc"/><use transform="matrix(0.010850694444444444,0,0,0.010850694444444444,38.639322916666664,0)" xlink:href="#bO"/><use transform="matrix(0.010850694444444444,0,0,0.010850694444444444,51.59505208333333,0)" xlink:href="#cf"/></g><g id="am"><use transform="matrix(0.010850694444444444,0,0,0.010850694444444444,0,0)" xlink:href="#bX"/><use transform="matrix(0.010850694444444444,0,0,0.010850694444444444,7.996961805555555,0)" xlink:href="#bO"/><use transform="matrix(0.010850694444444444,0,0,0.010850694444444444,20.95269097222222,0)" xlink:href="#bN"/><use transform="matrix(0.010850694444444444,0,0,0.010850694444444444,34.55946180555556,0)" xlink:href="#bY"/><use transform="matrix(0.010850694444444444,0,0,0.010850694444444444,39.94140625,0)" xlink:href="#bX"/><use transform="matrix(0.010850694444444444,0,0,0.010850694444444444,47.93836805555556,0)" xlink:href="#bO"/><use transform="matrix(0.010850694444444444,0,0,0.010850694444444444,60.89409722222221,0)" xlink:href="#bL"/><use transform="matrix(0.010850694444444444,0,0,0.010850694444444444,73.58940972222221,0)" xlink:href="#cc"/><use transform="matrix(0.010850694444444444,0,0,0.010850694444444444,80.85937499999999,0)" xlink:href="#bP"/><use transform="matrix(0.010850694444444444,0,0,0.010850694444444444,90.99392361111111,0)" xlink:href="#cb"/><use transform="matrix(0.010850694444444444,0,0,0.010850694444444444,104.13411458333331,0)" xlink:href="#bX"/><use transform="matrix(0.010850694444444444,0,0,0.010850694444444444,112.84722222222221,0)" xlink:href="#bY"/></g><path fill="#f2f3f5" d="M158 0v-1118h175l1 205c55-151 181-225 313-225 147 0 245 90 285 228 53-141 190-228 352-228 194 0 352 125 352 384V0h-181v-749c0-161-105-225-225-225-151 0-243 103-243 244V0H807v-767c0-124-93-207-219-207-131 0-250 92-250 270V0H158" id="cg"/><g id="an"><use transform="matrix(0.010850694444444444,0,0,0.010850694444444444,0,0)" xlink:href="#cg"/><use transform="matrix(0.010850694444444444,0,0,0.010850694444444444,19.466145833333332,0)" xlink:href="#bR"/><use transform="matrix(0.010850694444444444,0,0,0.010850694444444444,31.944444444444443,0)" xlink:href="#cc"/><use transform="matrix(0.010850694444444444,0,0,0.010850694444444444,38.99739583333333,0)" xlink:href="#bL"/><use transform="matrix(0.010850694444444444,0,0,0.010850694444444444,51.69270833333333,0)" xlink:href="#bQ"/></g></defs></g></svg>