<svg width="1200" height="720" viewBox="0 0 1200 720" fill="none" xmlns="http://www.w3.org/2000/svg">
  <rect width="1200" height="720" rx="32" fill="#F8FAFC"/>
  <rect x="44" y="44" width="1112" height="632" rx="28" fill="url(#bg)"/>
  <rect x="102" y="108" width="272" height="176" rx="22" fill="#FFFFFF" fill-opacity="0.96"/>
  <rect x="428" y="108" width="272" height="176" rx="22" fill="#FFFFFF" fill-opacity="0.96"/>
  <rect x="754" y="108" width="272" height="176" rx="22" fill="#FFFFFF" fill-opacity="0.96"/>
  <rect x="265" y="424" width="670" height="168" rx="24" fill="#0F172A" fill-opacity="0.92"/>
  <circle cx="238" cy="504" r="42" fill="#2563EB"/>
  <circle cx="600" cy="360" r="52" fill="#DBEAFE"/>
  <circle cx="961" cy="504" r="42" fill="#2563EB"/>
  <path d="M238 462V420" stroke="#93C5FD" stroke-width="10" stroke-linecap="round"/>
  <path d="M600 308V284" stroke="#60A5FA" stroke-width="10" stroke-linecap="round"/>
  <path d="M961 462V420" stroke="#93C5FD" stroke-width="10" stroke-linecap="round"/>
  <path d="M238 546V592" stroke="#93C5FD" stroke-width="10" stroke-linecap="round"/>
  <path d="M961 546V592" stroke="#93C5FD" stroke-width="10" stroke-linecap="round"/>
  <path d="M280 504H548" stroke="#60A5FA" stroke-width="10" stroke-linecap="round"/>
  <path d="M652 504H919" stroke="#60A5FA" stroke-width="10" stroke-linecap="round"/>
  <rect x="140" y="150" width="140" height="18" rx="9" fill="#BFDBFE"/>
  <rect x="140" y="186" width="180" height="18" rx="9" fill="#E2E8F0"/>
  <rect x="140" y="222" width="154" height="18" rx="9" fill="#E2E8F0"/>
  <rect x="466" y="150" width="140" height="18" rx="9" fill="#BFDBFE"/>
  <rect x="466" y="186" width="180" height="18" rx="9" fill="#E2E8F0"/>
  <rect x="466" y="222" width="154" height="18" rx="9" fill="#E2E8F0"/>
  <rect x="792" y="150" width="140" height="18" rx="9" fill="#BFDBFE"/>
  <rect x="792" y="186" width="180" height="18" rx="9" fill="#E2E8F0"/>
  <rect x="792" y="222" width="154" height="18" rx="9" fill="#E2E8F0"/>
  <rect x="330" y="470" width="198" height="20" rx="10" fill="#60A5FA"/>
  <rect x="330" y="510" width="532" height="20" rx="10" fill="#1E293B"/>
  <rect x="330" y="550" width="440" height="20" rx="10" fill="#1E293B"/>
  <defs>
    <linearGradient id="bg" x1="44" y1="44" x2="1156" y2="676" gradientUnits="userSpaceOnUse">
      <stop stop-color="#EFF6FF"/>
      <stop offset="1" stop-color="#DBEAFE"/>
    </linearGradient>
  </defs>
</svg>
