<svg width="1200" height="720" viewBox="0 0 1200 720" fill="none" xmlns="http://www.w3.org/2000/svg">
  <rect width="1200" height="720" rx="32" fill="#F8FAFC"/>
  <rect x="44" y="44" width="1112" height="632" rx="28" fill="url(#bg)"/>
  <rect x="166" y="166" width="344" height="388" rx="30" fill="#0F172A"/>
  <rect x="564" y="166" width="470" height="176" rx="28" fill="#FFFFFF"/>
  <rect x="564" y="378" width="470" height="176" rx="28" fill="#FFFFFF"/>
  <path d="M338 250L410 286V360C410 423 367 478 338 492C309 478 266 423 266 360V286L338 250Z" fill="#2563EB"/>
  <path d="M312 364L332 384L370 342" stroke="#DBEAFE" stroke-width="16" stroke-linecap="round" stroke-linejoin="round"/>
  <rect x="620" y="220" width="168" height="20" rx="10" fill="#BFDBFE"/>
  <rect x="620" y="260" width="286" height="18" rx="9" fill="#E2E8F0"/>
  <rect x="620" y="300" width="236" height="18" rx="9" fill="#E2E8F0"/>
  <rect x="620" y="432" width="168" height="20" rx="10" fill="#BFDBFE"/>
  <rect x="620" y="472" width="286" height="18" rx="9" fill="#E2E8F0"/>
  <rect x="620" y="512" width="236" height="18" rx="9" fill="#E2E8F0"/>
  <circle cx="946" cy="256" r="34" fill="#DBEAFE"/>
  <circle cx="946" cy="468" r="34" fill="#DBEAFE"/>
  <rect x="930" y="240" width="32" height="32" rx="10" fill="#2563EB"/>
  <rect x="930" y="452" width="32" height="32" rx="10" fill="#2563EB"/>
  <defs>
    <linearGradient id="bg" x1="44" y1="44" x2="1156" y2="676" gradientUnits="userSpaceOnUse">
      <stop stop-color="#EFF6FF"/>
      <stop offset="1" stop-color="#E2E8F0"/>
    </linearGradient>
  </defs>
</svg>
