<svg width="1961" height="319" viewBox="0 0 1961 319" fill="none" xmlns="http://www.w3.org/2000/svg">
<path d="M1720.49 0H1884.14C1898.22 0 1910.98 3.4819 1922.44 10.4457C1934.05 17.2644 1943.26 26.4044 1950.08 37.8657C1957.05 49.3269 1960.53 62.0939 1960.53 76.1666V107.068C1960.53 120.851 1957.05 133.473 1950.08 144.934C1943.26 156.25 1934.05 165.318 1922.44 172.136C1910.98 178.81 1898.22 182.147 1884.14 182.147H1792.53V136.447H1884.14C1892.7 136.447 1899.96 133.545 1905.9 127.742C1911.85 121.939 1914.83 114.83 1914.83 106.416V76.1666C1914.83 67.752 1911.85 60.5706 1905.9 54.6223C1899.96 48.6741 1892.7 45.6999 1884.14 45.6999H1766.41V309.454H1720.49V0Z" fill="#00A9FF"/>
<path d="M1411.91 0H1576.43C1592.53 0 1607.19 3.91714 1620.39 11.7514C1633.74 19.5857 1644.33 30.1039 1652.16 43.3061C1660 56.3633 1663.91 70.9437 1663.91 87.0475V223.277C1663.91 239.09 1660 253.526 1652.16 266.583C1644.33 279.64 1633.74 290.086 1620.39 297.92C1607.19 305.609 1592.53 309.454 1576.43 309.454H1411.91V0ZM1576.43 263.536C1588.04 263.536 1597.9 259.547 1606.03 251.567C1614.15 243.588 1618.21 233.94 1618.21 222.624V87.0475C1618.21 75.5862 1614.15 65.8659 1606.03 57.8866C1597.9 49.7621 1588.04 45.6999 1576.43 45.6999H1457.83V263.536H1576.43Z" fill="#00A9FF"/>
<path d="M1304.84 0H1350.76V309.454H1304.84V0Z" fill="#00A9FF"/>
<path d="M1041.09 129.701C1041.09 117.079 1045.59 106.343 1054.58 97.4932C1063.72 88.4983 1074.67 84.0009 1087.44 84.0009H1166.87C1181.82 84.0009 1195.45 87.7004 1207.78 95.0994C1220.12 102.353 1229.91 112.146 1237.16 124.478C1244.56 136.81 1248.26 150.447 1248.26 165.39V309.454H1202.34V166.043C1202.34 155.888 1198.86 147.255 1191.9 140.146C1185.08 133.038 1176.74 129.483 1166.87 129.483H1087.01V309.454H1041.09V129.701Z" fill="#00A9FF"/>
<path d="M783.863 130.571C783.863 117.659 788.578 106.706 798.008 97.7108C807.438 88.5708 818.754 84.0009 831.957 84.0009H925.968C938.009 84.0009 948.89 86.975 958.611 92.9232C968.476 98.7264 976.31 106.633 982.113 116.644C988.062 126.509 991.036 137.463 991.036 149.504V155.815C991.036 167.712 988.062 178.592 982.113 188.458C976.31 198.178 968.476 206.012 958.611 211.961C948.89 217.764 938.009 220.665 925.968 220.665H855.895V174.965H926.403C931.626 174.965 936.051 173.079 939.678 169.307C943.45 165.535 945.336 160.965 945.336 155.597V149.504C945.336 143.991 943.45 139.349 939.678 135.576C936.051 131.804 931.626 129.918 926.403 129.918H829.78V245.692C829.78 250.624 831.449 254.832 834.786 258.313C838.122 261.795 842.185 263.536 846.972 263.536H975.15V309.454H846.972C835.366 309.454 824.775 306.625 815.2 300.967C805.625 295.164 798.008 287.474 792.35 277.899C786.692 268.179 783.863 257.515 783.863 245.909V130.571Z" fill="#00A9FF"/>
<path d="M547.964 0H593.882V170.395H609.333L690.94 84.0008H750.567L647.634 193.245L759.707 309.454H695.51L605.198 216.313H593.882V309.454H547.964V0Z" fill="#00A9FF"/>
<path d="M0 0H252.002V45.6999H149.069V309.454H102.934V45.6999H0V0Z" fill="#00A9FF"/>
<g clip-path="url(#clip0_18_45)">
<path d="M357.795 71.4539C338.427 71.4539 320.096 75.9188 303.78 83.871C304.934 83.7414 306.124 83.6354 307.396 83.5647C308.256 83.5176 309.105 83.4822 309.941 83.4469C340.819 82.5044 369.541 100.412 381.97 128.686C400.018 169.778 369.506 201.422 369.506 201.422C370.754 122.218 284.824 100.883 279.311 99.5986C251.826 122.242 234.295 156.548 234.295 194.954C234.295 263.166 289.584 318.454 357.795 318.454C376.174 318.454 393.621 314.437 409.29 307.227C408.077 307.356 406.816 307.474 405.473 307.556C404.613 307.604 403.765 307.639 402.928 307.674C372.05 308.617 343.328 290.71 330.899 262.435C312.851 221.343 343.364 189.7 343.364 189.7C342.056 271.518 434.278 291.911 434.278 291.911C462.917 269.292 481.295 234.267 481.295 194.942C481.295 126.742 425.995 71.4539 357.795 71.4539Z" fill="#00A9FF"/>
</g>
<defs>
<clipPath id="clip0_18_45">
<rect width="247" height="247" fill="white" transform="translate(234.295 71.4539)"/>
</clipPath>
</defs>
</svg>
